<?xml version="1.0" encoding="UTF-8" standalone="no"?><svg xmlns="http://www.w3.org/2000/svg" xmlns:xlink="http://www.w3.org/1999/xlink" contentScriptType="text/ecmascript" fill="#000000" width="24" zoomAndPan="magnify" contentStyleType="text/css" viewBox="0.0 0.0 24.0 24.0" height="24" preserveAspectRatio="xMidYMid meet" version="1"><g id="change1_1"><path fill="#2196f3" d="M21.25,24h-6.5C13.233,24,12,22.767,12,21.25v-6.5c0-1.517,1.233-2.75,2.75-2.75h6.5 c1.517,0,2.75,1.233,2.75,2.75v6.5C24,22.767,22.767,24,21.25,24z"/></g><g id="change2_1"><path fill="#607d8b" d="M9.25,12h-6.5C1.233,12,0,10.767,0,9.25v-6.5C0,1.233,1.233,0,2.75,0h6.5C10.767,0,12,1.233,12,2.75v6.5 C12,10.767,10.767,12,9.25,12z"/></g><g id="change3_1"><path fill="#ffffff" d="M19.25,21c-0.414,0-0.75-0.336-0.75-0.75V17c0-0.276-0.224-0.5-0.5-0.5s-0.5,0.224-0.5,0.5v3.25 c0,0.414-0.336,0.75-0.75,0.75S16,20.664,16,20.25V17c0-1.103,0.897-2,2-2s2,0.897,2,2v3.25C20,20.664,19.664,21,19.25,21z"/></g><g id="change3_2"><path fill="#ffffff" d="M19.25,19.5h-2.5c-0.414,0-0.75-0.336-0.75-0.75S16.336,18,16.75,18h2.5c0.414,0,0.75,0.336,0.75,0.75 S19.664,19.5,19.25,19.5z"/></g><g id="change4_1"><path fill="#90a4ae" d="M19,9c-0.552,0-1-0.448-1-1V7c0-0.551-0.449-1-1-1h-1c-0.552,0-1-0.448-1-1s0.448-1,1-1h1 c1.654,0,3,1.346,3,3v1C20,8.552,19.552,9,19,9z"/></g><g id="change4_2"><path fill="#90a4ae" d="M8,20H7c-1.654,0-3-1.346-3-3v-1c0-0.552,0.448-1,1-1s1,0.448,1,1v1c0,0.551,0.449,1,1,1h1 c0.552,0,1,0.448,1,1S8.552,20,8,20z"/></g><g id="change3_3"><path fill="#ffffff" d="M8.25,5.5h-4.5C3.336,5.5,3,5.164,3,4.75S3.336,4,3.75,4h4.5C8.664,4,9,4.336,9,4.75S8.664,5.5,8.25,5.5z"/></g><g id="change3_4"><path fill="#ffffff" d="M6,5.25c-0.414,0-0.75-0.336-0.75-0.75V3.75C5.25,3.336,5.586,3,6,3s0.75,0.336,0.75,0.75V4.5 C6.75,4.914,6.414,5.25,6,5.25z"/></g><g id="change3_5"><path fill="#ffffff" d="M8.25,9C8.194,9,8.137,8.994,8.08,8.98C5.562,8.394,4.087,7.518,4,4.774C3.987,4.36,4.312,4.014,4.726,4 c0.42-0.007,0.76,0.312,0.773,0.726C5.55,6.324,5.979,6.951,8.42,7.52c0.404,0.094,0.654,0.497,0.561,0.9C8.9,8.766,8.591,9,8.25,9z"/></g><g id="change3_6"><path fill="#ffffff" d="M3.75,9C3.409,9,3.1,8.766,3.02,8.42C2.926,8.017,3.176,7.613,3.58,7.52c2.44-0.568,2.87-1.196,2.92-2.793 C6.513,4.312,6.845,3.974,7.274,4C7.687,4.014,8.013,4.36,8,4.774C7.913,7.518,6.438,8.394,3.92,8.98C3.863,8.994,3.806,9,3.75,9z"/></g></svg>