<?xml version="1.0" encoding="UTF-8" standalone="no"?><svg xmlns="http://www.w3.org/2000/svg" xmlns:xlink="http://www.w3.org/1999/xlink" contentScriptType="text/ecmascript" fill="#000000" width="29" zoomAndPan="magnify" contentStyleType="text/css" viewBox="1.5 1.5 29.0 29.0" height="29" preserveAspectRatio="xMidYMid meet" version="1"><defs><linearGradient x1="15.922" y1="1.5" x2="16.078" gradientUnits="userSpaceOnUse" y2="30.5" xlink:type="simple" xlink:actuate="onLoad" id="a" xlink:show="other"><stop stop-color="#09c6f9" offset="0"/><stop stop-color="#045de9" offset="1"/></linearGradient></defs><g data-name="Layer 90"><circle fill="url(#a)" r="14.5" cx="16" cy="16"/><g id="change1_1"><path fill="#ffffff" d="M10.809,9.861a.4.4,0,0,0-.183.044L7.039,11.756a.4.4,0,0,0-.2.465l.672,2.358a.4.4,0,0,0,.551.254l1.914-.878V22a.4.4,0,0,0,.4.4h2.817a.4.4,0,0,0,.4-.4V10.261a.4.4,0,0,0-.4-.4Z" fill-rule="evenodd"/></g><g id="change1_2"><path fill="#ffffff" d="M20.363,19.075l1.4-1.265a8.994,8.994,0,0,0,1.684-1.948,4.066,4.066,0,0,0,.572-2.128,3.791,3.791,0,0,0-1.34-3.1,5.214,5.214,0,0,0-3.425-1.076A4.683,4.683,0,0,0,16.065,10.7a4.281,4.281,0,0,0-1.513,2.737.4.4,0,0,0,.286.436l2.52.725a.4.4,0,0,0,.5-.3,2.009,2.009,0,0,1,.549-1.067,1.267,1.267,0,0,1,.912-.369,1.155,1.155,0,0,1,.835.276,1.02,1.02,0,0,1,.281.774,1.286,1.286,0,0,1-.233.728,5.572,5.572,0,0,1-.895.968l-4.56,4.238a.4.4,0,0,0-.128.293V22a.4.4,0,0,0,.4.4h8.756a.4.4,0,0,0,.4-.4V19.475a.4.4,0,0,0-.4-.4Z" fill-rule="evenodd"/></g></g></svg>