<?xml version="1.0" encoding="UTF-8" standalone="no"?><svg xmlns="http://www.w3.org/2000/svg" xmlns:xlink="http://www.w3.org/1999/xlink" contentScriptType="text/ecmascript" fill="#000000" width="3328.8" zoomAndPan="magnify" contentStyleType="text/css" viewBox="0.0 0.0 3328.8 3302.9" height="3302.9" preserveAspectRatio="xMidYMid meet" version="1"><defs><clipPath id="a"><path d="M 2696 1623 L 3328.820312 1623 L 3328.820312 1680 L 2696 1680 Z M 2696 1623"/></clipPath><clipPath id="b"><path d="M 1647 2670 L 1703 2670 L 1703 3302.871094 L 1647 3302.871094 Z M 1647 2670"/></clipPath></defs><g><g id="change1_1"><path fill="#fbc946" d="M 3136.609375 1651.449219 C 3136.609375 2457.339844 2483.308594 3110.640625 1677.421875 3110.640625 C 871.535156 3110.640625 218.238281 2457.339844 218.238281 1651.449219 C 218.238281 845.558594 871.535156 192.257812 1677.421875 192.257812 C 2483.308594 192.257812 3136.609375 845.558594 3136.609375 1651.449219"/></g><g id="change2_1"><path fill="#29397e" d="M 1677.429688 220.015625 C 888.117188 220.015625 245.964844 862.164062 245.964844 1651.449219 C 245.964844 2440.75 888.117188 3082.898438 1677.429688 3082.898438 C 2466.738281 3082.898438 3108.886719 2440.75 3108.886719 1651.449219 C 3108.886719 862.164062 2466.738281 220.015625 1677.429688 220.015625 Z M 1677.429688 3138.371094 C 857.523438 3138.371094 190.5 2471.339844 190.5 1651.449219 C 190.5 831.570312 857.523438 164.53125 1677.429688 164.53125 C 2497.3125 164.53125 3164.351562 831.570312 3164.351562 1651.449219 C 3164.351562 2471.339844 2497.3125 3138.371094 1677.429688 3138.371094"/></g><g id="change3_1"><path fill="#ffffff" d="M 2866.632812 1651.453125 C 2866.632812 2308.242188 2334.210938 2840.660156 1677.414062 2840.660156 C 1020.636719 2840.660156 488.210938 2308.242188 488.210938 1651.453125 C 488.210938 994.667969 1020.636719 462.25 1677.414062 462.25 C 2334.210938 462.25 2866.632812 994.667969 2866.632812 1651.453125"/></g><g id="change2_2"><path fill="#29397e" d="M 1677.433594 489.980469 C 1036.992188 489.980469 515.941406 1011.003906 515.941406 1651.445312 C 515.941406 2291.898438 1036.992188 2812.929688 1677.433594 2812.929688 C 2317.878906 2812.929688 2838.917969 2291.898438 2838.917969 1651.445312 C 2838.917969 1011.003906 2317.878906 489.980469 1677.433594 489.980469 Z M 1677.433594 2868.398438 C 1006.402344 2868.398438 460.472656 2322.46875 460.472656 1651.445312 C 460.472656 980.445312 1006.402344 434.507812 1677.433594 434.507812 C 2348.457031 434.507812 2894.375 980.445312 2894.375 1651.445312 C 2894.375 2322.46875 2348.457031 2868.398438 1677.433594 2868.398438"/></g><g id="change3_2"><path fill="#ffffff" d="M 2866.632812 1651.453125 C 2866.632812 2308.242188 2334.210938 2840.660156 1677.414062 2840.660156 C 1020.636719 2840.660156 488.210938 2308.242188 488.210938 1651.453125 C 488.210938 994.667969 1020.636719 462.25 1677.414062 462.25 C 2334.210938 462.25 2866.632812 994.667969 2866.632812 1651.453125"/></g><g id="change2_3"><path fill="#29397e" d="M 1677.433594 489.980469 C 1036.992188 489.980469 515.941406 1011.003906 515.941406 1651.445312 C 515.941406 2291.898438 1036.992188 2812.929688 1677.433594 2812.929688 C 2317.878906 2812.929688 2838.917969 2291.898438 2838.917969 1651.445312 C 2838.917969 1011.003906 2317.878906 489.980469 1677.433594 489.980469 Z M 1677.433594 2868.398438 C 1006.402344 2868.398438 460.472656 2322.46875 460.472656 1651.445312 C 460.472656 980.445312 1006.402344 434.507812 1677.433594 434.507812 C 2348.457031 434.507812 2894.375 980.445312 2894.375 1651.445312 C 2894.375 2322.46875 2348.457031 2868.398438 1677.433594 2868.398438"/></g><g id="change2_4"><path fill="#29397e" d="M 630.714844 1679.167969 L 53.691406 1679.167969 C 38.371094 1679.167969 25.957031 1666.742188 25.957031 1651.425781 C 25.957031 1636.105469 38.371094 1623.691406 53.691406 1623.691406 L 630.714844 1623.691406 C 646.03125 1623.691406 658.449219 1636.105469 658.449219 1651.425781 C 658.449219 1666.742188 646.03125 1679.167969 630.714844 1679.167969"/></g><g id="change2_10" clip-path="url(#a)"><path fill="#29397e" d="M 3301.089844 1679.167969 L 2724.0625 1679.167969 C 2708.746094 1679.167969 2696.351562 1666.75 2696.351562 1651.429688 C 2696.351562 1636.109375 2708.746094 1623.699219 2724.0625 1623.699219 L 3301.089844 1623.699219 C 3316.40625 1623.699219 3328.824219 1636.109375 3328.824219 1651.429688 C 3328.824219 1666.75 3316.40625 1679.167969 3301.089844 1679.167969"/></g><g id="change2_5"><path fill="#29397e" d="M 604.757812 1679.167969 L 27.734375 1679.167969 C 12.414062 1679.167969 0 1666.742188 0 1651.425781 C 0 1636.105469 12.414062 1623.691406 27.734375 1623.691406 L 604.757812 1623.691406 C 620.074219 1623.691406 632.492188 1636.105469 632.492188 1651.425781 C 632.492188 1666.742188 620.074219 1679.167969 604.757812 1679.167969"/></g><g id="change2_6"><path fill="#29397e" d="M 3275.128906 1679.167969 L 2698.097656 1679.167969 C 2682.78125 1679.167969 2670.378906 1666.75 2670.378906 1651.429688 C 2670.378906 1636.109375 2682.78125 1623.699219 2698.097656 1623.699219 L 3275.128906 1623.699219 C 3290.449219 1623.699219 3302.867188 1636.109375 3302.867188 1651.429688 C 3302.867188 1666.75 3290.449219 1679.167969 3275.128906 1679.167969"/></g><g id="change2_11" clip-path="url(#b)"><path fill="#29397e" d="M 1674.953125 3302.871094 C 1659.648438 3302.871094 1647.230469 3290.449219 1647.230469 3275.128906 L 1647.230469 2698.109375 C 1647.230469 2682.789062 1659.648438 2670.378906 1674.953125 2670.378906 C 1690.277344 2670.378906 1702.699219 2682.789062 1702.699219 2698.109375 L 1702.699219 3275.128906 C 1702.699219 3290.449219 1690.277344 3302.871094 1674.953125 3302.871094"/></g><g id="change2_7"><path fill="#29397e" d="M 1674.960938 632.492188 C 1659.648438 632.492188 1647.230469 620.070312 1647.230469 604.75 L 1647.230469 27.742188 C 1647.230469 12.421875 1659.648438 0 1674.960938 0 C 1690.277344 0 1702.699219 12.421875 1702.699219 27.742188 L 1702.699219 604.75 C 1702.699219 620.070312 1690.277344 632.492188 1674.960938 632.492188"/></g><g id="change4_1"><path fill="#69ccb4" d="M 1789.96875 2405.015625 C 1789.96875 2473.246094 1734.664062 2528.554688 1666.449219 2528.554688 C 1598.222656 2528.554688 1542.929688 2473.246094 1542.929688 2405.015625 C 1542.929688 2336.816406 1598.222656 2281.503906 1666.449219 2281.503906 C 1734.664062 2281.503906 1789.96875 2336.816406 1789.96875 2405.015625"/></g><g id="change2_8"><path fill="#29397e" d="M 1666.4375 2309.246094 C 1613.621094 2309.246094 1570.667969 2352.21875 1570.667969 2405.015625 C 1570.667969 2457.835938 1613.621094 2500.828125 1666.4375 2500.828125 C 1719.25 2500.828125 1762.226562 2457.835938 1762.226562 2405.015625 C 1762.226562 2352.21875 1719.25 2309.246094 1666.4375 2309.246094 Z M 1666.4375 2556.296875 C 1583.035156 2556.296875 1515.199219 2488.4375 1515.199219 2405.015625 C 1515.199219 2321.617188 1583.035156 2253.777344 1666.4375 2253.777344 C 1749.828125 2253.777344 1817.695312 2321.617188 1817.695312 2405.015625 C 1817.695312 2488.4375 1749.828125 2556.296875 1666.4375 2556.296875"/></g><g id="change4_2"><path fill="#69ccb4" d="M 2237.410156 1324.640625 C 2219.738281 1040.179688 1988.191406 808.636719 1703.75 791.007812 C 1423.703125 773.597656 1183.722656 958.128906 1115.472656 1212.902344 C 1095.453125 1287.628906 1151.800781 1361.089844 1229.164062 1361.089844 L 1233.464844 1361.089844 C 1284.703125 1361.089844 1327.554688 1325.273438 1340.453125 1275.683594 C 1381.351562 1118.804688 1532.195312 1006.308594 1705.753906 1025.488281 C 1860.457031 1042.554688 1985.820312 1167.933594 2002.917969 1322.652344 C 2025.402344 1526.390625 1866.507812 1698.832031 1667.316406 1698.832031 L 1666.027344 1698.832031 C 1599.957031 1698.566406 1545.382812 1749.710938 1545.355469 1815.746094 L 1545.355469 1890.707031 L 1545.324219 1890.734375 L 1545.324219 2009.40625 C 1545.324219 2076.277344 1599.539062 2130.476562 1666.386719 2130.476562 C 1733.25 2130.476562 1787.480469 2076.277344 1787.480469 2009.40625 L 1787.480469 1919.644531 C 2056.5625 1862.007812 2255.441406 1614.867188 2237.410156 1324.640625"/></g><g id="change2_9"><path fill="#29397e" d="M 1573.0625 1891.8125 L 1573.0625 2009.421875 C 1573.0625 2060.882812 1614.910156 2102.742188 1666.375 2102.742188 C 1717.839844 2102.742188 1759.71875 2060.882812 1759.71875 2009.421875 L 1759.71875 1919.652344 C 1759.71875 1906.5625 1768.863281 1895.285156 1781.648438 1892.523438 C 2046.53125 1835.804688 2226.570312 1597.6875 2209.707031 1326.34375 C 2192.785156 1053.835938 1974.503906 835.585938 1702.027344 818.695312 C 1444.058594 802.429688 1208.855469 971.472656 1142.246094 1220.089844 C 1134.96875 1247.320312 1140.628906 1275.789062 1157.808594 1298.171875 C 1174.988281 1320.554688 1200.988281 1333.386719 1229.15625 1333.386719 L 1233.445312 1333.386719 C 1271.316406 1333.386719 1303.535156 1307.378906 1313.597656 1268.699219 C 1359.785156 1091.609375 1526.125 977.652344 1708.804688 997.933594 C 1876.640625 1016.457031 2011.929688 1151.746094 2030.46875 1319.597656 C 2041.953125 1423.609375 2008.824219 1527.558594 1939.601562 1604.871094 C 1870.335938 1682.21875 1771.078125 1726.578125 1667.316406 1726.578125 C 1667.191406 1726.578125 1667.019531 1726.578125 1666.894531 1726.578125 C 1640.070312 1726.578125 1616.449219 1736.171875 1598.910156 1753.625 C 1582.269531 1770.195312 1573.109375 1792.273438 1573.078125 1815.785156 L 1573.078125 1890.703125 C 1573.078125 1891.074219 1573.078125 1891.445312 1573.0625 1891.8125 Z M 1666.375 2158.210938 C 1584.339844 2158.210938 1517.585938 2091.453125 1517.585938 2009.421875 L 1517.585938 1890.753906 C 1517.585938 1890.382812 1517.585938 1890.011719 1517.617188 1889.644531 L 1517.617188 1815.765625 C 1517.636719 1777.382812 1532.605469 1741.355469 1559.777344 1714.3125 C 1587.789062 1686.453125 1625.308594 1671.113281 1665.480469 1671.113281 C 1755.203125 1672.210938 1839.371094 1633.625 1898.285156 1567.871094 C 1957.859375 1501.332031 1985.230469 1415.328125 1975.351562 1325.699219 C 1959.617188 1183.433594 1844.957031 1068.769531 1702.71875 1053.054688 C 1547.925781 1035.957031 1406.457031 1132.46875 1367.285156 1282.691406 C 1351.035156 1345.199219 1295.996094 1388.851562 1233.445312 1388.851562 L 1229.15625 1388.851562 C 1183.617188 1388.851562 1141.558594 1368.113281 1113.796875 1331.925781 C 1086.046875 1295.773438 1076.878906 1249.78125 1088.6875 1205.753906 C 1162.078125 931.742188 1421.515625 746.117188 1705.449219 763.324219 C 2005.8125 781.957031 2246.414062 1022.527344 2265.078125 1322.90625 C 2283.179688 1614.332031 2095.078125 1870.972656 1815.183594 1941.671875 L 1815.183594 2009.421875 C 1815.183594 2091.453125 1748.441406 2158.210938 1666.375 2158.210938"/></g></g></svg>