<?xml version="1.0" encoding="UTF-8" standalone="no"?><svg xmlns="http://www.w3.org/2000/svg" xmlns:xlink="http://www.w3.org/1999/xlink" contentScriptType="text/ecmascript" fill="#000000" width="336.6" zoomAndPan="magnify" contentStyleType="text/css" viewBox="-0.0 -10.4 336.6 526.0" height="526" preserveAspectRatio="xMidYMid meet" version="1"><g><g id="change1_1"><path fill="#1a1a1a" d="M282.6944,508.3238c0,0,3.043,4.4648,0,5.8867c-3.0449,1.418-41.6856,0-41.6856,0l-0.2187-13.6816 l14.9746-0.1602C255.7647,500.3687,267.6758,508.9312,282.6944,508.3238z"/></g><g id="change1_2"><path fill="#1a1a1a" d="M109.1172,508.3238c0,0-3.04,4.4648,0,5.8896c3.044,1.4151,41.6885,0,41.6885,0l-0.6855-14.1513 l-14.0772,0.3066C136.043,500.3687,124.1338,508.9312,109.1172,508.3238z"/></g><g id="change2_1"><path fill="#ffffff" d="M133.4522,195.5699c-17.1797,90.457-10.0801,303.4258-10.0801,303.4258s64.5371,15.2588,144.2871,0 l-0.2002-303.4258H133.4522z"/></g><g id="change2_2"><path fill="#ffffff" d="M152.0674,57.734c0,0-62.748,97.582-22.0879,140.2558c40.6602,42.6709,75.9561-0.5596,75.9561-0.5596 L177.2657,45.566L152.0674,57.734z"/></g><g id="change2_3"><path fill="#ffffff" d="M184.8829,16.5591c0,0,19.831-26.9121,69.3252-12.1191c49.496,14.793,42.5673,60.833,42.5673,60.833 L184.8829,16.5591z"/></g><g fill="#e20613" id="change3_2"><path fill="inherit" d="M212.2207,1.4058l4.6846,0.7725l-1.1035,6.6933l-6.8887-1.1357l0.9571-5.7939 c-2.7344,0.6865-5.2198,1.5175-7.4766,2.4306l-0.3672,2.2266l-3.3594-0.5527c-1.457,0.7246-2.7822,1.4726-3.9951,2.2236 l-0.6709,4.0635l-4.122-0.6807c-1.4405,1.1689-2.5469,2.2207-3.3506,3.0547l-0.3907,2.374l3.8135,1.6611l2.9141,0.4815 l1.1318-6.8721l6.8926,1.1377l-1.1338,6.8701l6.8887,1.1377l1.1338-6.873l6.8886,1.1367l-1.1328,6.8701l6.8877,1.1367 l1.1328-6.8691l6.8916,1.1348l-1.1338,6.871l6.8887,1.1368l1.1338-6.8721l6.8906,1.1367l-1.1328,6.8711l6.8906,1.1367 l1.1329-6.8701l6.8886,1.1358l-1.1338,6.8691l6.8907,1.1377l1.1338-6.8701l6.8867,1.1347l-1.1328,6.8731l6.8906,1.1348 l1.1348-6.8711l6.8886,1.1367l-1.1347,6.8691l6.8925,1.1377l0.6592-3.999c-0.6181-1.1045-1.2724-2.2061-1.999-3.2979 l-4.415-0.7295l0.6923-4.2031c-0.9384-1.0976-1.9531-2.1777-3.0322-3.2412l-3.415-0.5615l0.3623-2.207 c-1.9102-1.6104-4.0127-3.1495-6.3194-4.6036l-0.9355,5.6729l-6.8887-1.1358l1.1035-6.6933l4.3282,0.7139 c-1.3018-0.7413-2.6709-1.4463-4.0957-2.128l-0.2295,1.3936l-6.8887-1.1358l0.5029-3.0546 c-1.4492-0.5264-2.9541-1.0245-4.5136-1.4903c-0.752-0.2246-1.4756-0.4111-2.2129-0.6172l-0.6651,4.0274l-6.8896-1.1377 l0.7558-4.5908c-2.375-0.5069-4.6562-0.8956-6.8769-1.2139l-0.7696,4.668l-6.8886-1.1358l0.7002-4.2549 c-2.458-0.1572-4.8096-0.2011-7.0547-0.1435l-0.5381,3.2617l-6.8887-1.1348l0.2617-1.5869 C215.4444,0.7955,213.7969,1.0757,212.2207,1.4058z M207.7813,14.606l-6.8887-1.1377l1.1035-6.6914l6.8887,1.1348L207.7813,14.606 z M270.8907,18.1382l6.8906,1.1358l-1.1035,6.6943l-6.8926-1.1367L270.8907,18.1382z M264.002,17.0006l-1.1045,6.6943 l-6.8896-1.1358l1.1035-6.6933L264.002,17.0006z M251.3565,7.8599l6.8887,1.1377l-1.1055,6.6905l-6.8867-1.1348L251.3565,7.8599z M250.2227,14.73l-1.1045,6.6934l-6.8896-1.1367l1.1045-6.6934L250.2227,14.73z M237.5752,5.5865l6.8907,1.1367l-1.1035,6.6943 l-6.8917-1.1367L237.5752,5.5865z M236.4415,12.4566l-1.1026,6.6934l-6.8887-1.1368l1.1026-6.6923L236.4415,12.4566z M223.795,3.316l6.8916,1.1347l-1.1055,6.6934l-6.8896-1.1377L223.795,3.316z M222.6631,10.1841l-1.1054,6.6944l-6.8868-1.1367 l1.1036-6.6934L222.6631,10.1841z"/><path fill="inherit" d="M192.7442 19.9576L199.3487 22.8355 199.753 20.3804 192.8624 19.2427z"/><path fill="inherit" d="M288.1807,42.0425l6.7363,1.1094c-0.6796-2.4394-1.5576-4.9658-2.6796-7.5185l-2.92-0.4834l-1.1328,6.8711 l-6.8926-1.1368l1.1338-6.8691l-6.8886-1.1357l-1.1319,6.8701l-6.8926-1.1377l1.1338-6.8692l-6.8877-1.1377l-0.8466,5.1329 c2.1318,0.9082,4.2099,1.8554,6.2275,2.833l0.3701,0.0615l-0.0166,0.1094c2.2539,1.1015,4.4385,2.2373,6.5176,3.3994 l0.3906-2.3731l6.8877,1.1377l-1.1318,6.8692l6.8916,1.1367L288.1807,42.0425z"/><path fill="inherit" d="M285.1856,60.2056l0.7266-4.4043l6.8886,1.1358l-1.0146,6.1426l2.7646,1.2041l2.3272,0.3828 c0.1191-1.0791,0.332-3.5928,0.2246-7.0391l-4.2988-0.709l1.1328-6.8711l-6.8877-1.1357l-1.1338,6.8701l-6.8916-1.1377 l1.1338-6.8691l-1.4024-0.2315c-0.2265,1.71-0.5459,4.1856-0.8847,6.9317l1.1504,0.1884l-0.4395,2.667L285.1856,60.2056z"/><path fill="inherit" d="M295.0137,43.5201l-1.0771,6.5273l2.5254,0.417C296.1397,48.2808,295.6719,45.9488,295.0137,43.5201z"/><path fill="inherit" d="M220.419,23.7877l-0.2686,1.625c2.5791,0.249,4.9219,0.5273,6.9463,0.8017l0.2129-1.29L220.419,23.7877z"/><path fill="inherit" d="M206.6416,21.5162l-0.5039,3.0498c2.3926,0.0517,4.75,0.1572,7.0284,0.2978l0.3642-2.2119 L206.6416,21.5162z"/><path fill="inherit" d="M234.1983,26.0611l-0.2129,1.29c2.2842,0.4493,4.5605,0.9688,6.8242,1.5459l0.2803-1.6992 L234.1983,26.0611z"/><path fill="inherit" d="M247.9805,28.3336l-0.4111,2.4863c2.2666,0.709,4.5,1.4717,6.6992,2.2812l0.5996-3.6318L247.9805,28.3336z"/></g><g id="change1_3"><path fill="#1a1a1a" d="M169.6778,34.691c0,0-9.4326-21.211,25.3144-24.8799c36.7578-3.8828,141.6065,29.2168,97.1895,64.9766 C247.7647,110.5465,169.6778,34.691,169.6778,34.691z"/></g><g id="change2_4"><path fill="#ffffff" d="M156.8741,65.7252c0,0-13.2676-20.6094-11.3037-24.8291c1.9658-4.2198,48.9462-39.5733,141.4873,10.8808 c33.6464,18.3438,7.082,48.8828,7.082,48.8828L156.8741,65.7252z"/></g><g id="change4_1"><path fill="#c49370" d="M133.9502,191.9429l9.8506-67.2666c0,0-14.6748-1.1621-13.9912-5.3164 c1.7774-10.8027,19.1983-51.414,30.0684-59.7334c11.6474-8.914,45.4922-5.6679,57.167-3.7441 c33.6142,5.5439,67.1933,26.832,67.1982,38.7764c0,0,11.6875,6.5498,10.0703,16.3642 c-1.6191,9.8145-12.8437,12.0527-12.8437,12.0527l-14.3828,86.6524C267.087,209.7281,205.3467,220.7154,133.9502,191.9429z"/></g><g id="change5_1"><path fill="#333333" d="M178.6241,89.0992c-0.6075,3.668-3.0567,6.3193-5.4727,5.9209c-2.4228-0.4014-3.8887-3.7022-3.2851-7.3721 c0.6103-3.6699,3.0625-6.3183,5.4765-5.918C177.7686,82.1295,179.2413,85.4283,178.6241,89.0992z"/></g><g id="change5_2"><path fill="#333333" d="M226.7969,98.9254c-0.6064,3.6699-3.0566,6.3193-5.4736,5.9209c-2.4219-0.4024-3.8887-3.7022-3.2832-7.375 c0.6094-3.669,3.0625-6.3165,5.4765-5.9131C225.9424,91.9547,227.4151,95.2535,226.7969,98.9254z"/></g><g id="change1_4"><path fill="#1a1a1a" d="M199.9073,214.6773c-27.8965-2.4834-44.2803-7.3017-59.0723-18.9121 c-1.707-0.3809-7.1992-5.7656-7.042-7.5059c0,0,1-9.1777,3.2627-20.375c2.5664-12.708,6.4561-27.6455,6.8379-27.958 c0.7188-0.5908,1.6426-0.8701,2.5693-0.7724l35.7256,3.8056l-1.4892,5.8477c0,0-22.5401-4.5957-29.0118-0.0889 c0,0-11.0751,27.8262-5.456,35.4336c9.6758,13.1016,55.0234,24.5088,68.1738,14.8985c7.8916-5.7657,3.5254-36.8418,3.5254-36.8418 c-4.9687-7.6563-31.6348-12.7413-31.6348-12.7413l0.9327-5.8974l40.8505,11.8857c1.8155,0.544,3.7754,2.5948,3.2637,4.419 l-1.5683,50.249C229.294,211.8365,211.462,215.7056,199.9073,214.6773z"/></g><g id="change2_5"><path fill="#ffffff" d="M266.2862,59.2437c-27.0098,107.6778,4.4795,162.6514,4.4795,162.6514 c16.2802-25.8076,7.3877-63.251,31.0908-134.4834C311.001,59.9293,267.8409,53.0543,266.2862,59.2437z"/></g><g id="change3_1"><path fill="#e20613" d="M138.6973,94.5504c0.6455-1.4561,1.3096-2.9219,1.9932-4.3936l-1.2344-0.2021L138.6973,94.5504z M125.1163,113.7222c-0.7129,2.0547-1.3985,4.1319-2.0557,6.2285l4.751,0.7833l1.0556-6.3965L125.1163,113.7222z M120.4717,165.2359l6.3946,1.0547l-1.0528,6.3769l6.3955,1.0557l1.0537-6.3955l-6.3935-1.0537l1.0351-6.2725l6.3936,1.0537 l-1.0215,6.2051l3.7793,0.624l0.9981-6.4033l-3.7227-0.6133l1.0244-6.206l-6.3974-1.0557l1.0527-6.3769l-6.3945-1.0547 l-1.0518,6.3769l-5.9883-0.9873c-0.1728,2.1875-0.2812,4.3653-0.3056,6.5176l5.2402,0.8662l-1.0352,6.2725l-4.0146-0.6651 c0.1533,2.2686,0.4072,4.5039,0.7715,6.6973l2.1875,0.3613L120.4717,165.2359z M122.5616,152.5699l6.3935,1.0547l-1.0342,6.2715 l-6.3945-1.0547L122.5616,152.5699z M133.0577,108.4615l-3.1368-0.5166l1.0352-6.2734l4.4229,0.7294 c0.7968-1.9843,1.6621-4.0478,2.5712-6.1455l-5.6015-0.9228c-0.1875,0.4277-0.374,0.8555-0.5596,1.2861l-0.8154,4.9483 l-1.1836-0.1954c-0.8272,2.0186-1.6367,4.0782-2.4287,6.167l2.5576,0.4219l-1.0518,6.377l2.1045,0.3486 C131.5196,112.855,132.2188,110.7613,133.0577,108.4615z M302.9502,84.0396c0.5645-2.04,0.96-4.1836,1.0889-6.3906l-4.7607-0.7832 l-1.0528,6.376l-6.3925-1.0547l1.0507-6.378l-6.3955-1.0537l-1.0508,6.377l-6.3955-1.0547l1.0508-6.376l-6.3965-1.0576 l-1.0507,6.3779l-6.3946-1.0537l1.0518-6.3789l-6.3936-1.0527l1.0508-6.3779l6.3945,1.0537l-1.0517,6.3769l6.3935,1.0547 l1.0528-6.3779l6.3965,1.0576l-1.0528,6.3779l6.3955,1.0537l1.0528-6.3779l6.3955,1.0537l-1.0528,6.3779l6.3946,1.0567 l1.0517-6.3809l3.2207,0.5342c-0.4443-2.0576-1.1816-4.123-2.2929-6.1611l-0.9268,5.6113l-6.3916-1.0537l1.0498-6.3789 l-6.3945-1.0557l-1.0508,6.3789l-6.3955-1.0556l1.0517-6.378l-6.3964-1.0537l-1.0528,6.378l-6.3926-1.0538l1.0518-6.3798 l-6.3955-1.0557l-1.0527,6.3799l-6.3965-1.0557l1.0527-6.3779l-6.3945-1.0537l-1.0518,6.3769l-6.3974-1.0547l1.0507-6.3789 l-6.3935-1.0547l-1.0498,6.378l-5.5742-0.917c1.8339,0.5215,3.6504,1.0791,5.4492,1.6709l0.1211-0.7344l6.3945,1.0537 l-0.3144,1.8926c2.0957,0.8008,4.1484,1.6426,6.1582,2.5205l0.5546-3.3574l6.3916,1.0537l-0.8476,5.1426 c1.2402,0.6142,2.4619,1.2363,3.6484,1.8711l2.544,0.4199l-0.1485,0.8935c0.8145,0.459,1.6133,0.92,2.3965,1.3858 c-0.3281,1.5195-0.624,3.0117-0.9277,4.5068l4.0205,0.6641l-1.0518,6.3769l6.3936,1.0528l1.0517-6.376l6.3975,1.0547 l-1.0517,6.3779l6.3945,1.0537l1.0527-6.376l6.3945,1.0547l-1.0517,6.377l6.3935,1.0537l1.0528-6.376L302.9502,84.0396z M139.5616,129.1539l3.4511,0.5683l0.7881-5.0459c0,0-1.4609-0.1152-3.4345-0.4043L139.5616,129.1539z M274.919,144.9078 l6.3955,1.0537l1.0537-6.3936l-6.3945-1.0547L274.919,144.9078z M152.1729,52.69l-3.1104-0.5127 c0.7803,1.5391,1.6143,3.0859,2.4415,4.5664L152.1729,52.69z M147.9541,38.44c-0.1484,0.1182-0.2871,0.2334-0.4199,0.3467 l0.3535,0.0586L147.9541,38.44z M295.8272,57.9693l-0.834,5.0488l5.752,0.9483C299.5157,61.9234,297.9014,59.9117,295.8272,57.9693 z M262.127,142.7974l6.3975,1.0567l1.0537-6.3965l-6.3955-1.0547L262.127,142.7974z M140.5098,83.5757l3.1006,0.5118 c1.0293-2.0635,2.084-4.0879,3.1465-6.0489l-5.1934-0.8564l-1.0508,6.376l-2.497-0.4112c-0.96,1.9502-1.9336,3.9825-2.9151,6.0889 l4.3565,0.7188L140.5098,83.5757z M149.0108,71.859l-0.4981,3.0146c0.5752-1.0029,1.1504-1.9736,1.7247-2.9189l-1.21-0.2002 l1.0381-6.2901l-2.4121-0.3984c-1.0039,1.7392-2.1407,3.7539-3.3731,6.0137L149.0108,71.859z M141.0713,77.0992l0.4903,0.082 l0.248-1.4961C141.5674,76.148,141.3194,76.6236,141.0713,77.0992z M289.7256,94.9586l1.0518-6.376l-6.3955-1.0557l-1.0508,6.3779 l-6.3945-1.0537l1.0508-6.3779l-6.3975-1.0566l-1.0508,6.3769l-6.3935-1.0537l1.0507-6.376l-4.1972-0.6923 c-0.3985,2.1523-0.7725,4.2802-1.1221,6.3837l4.2646,0.7032l-1.0517,6.3779l6.3935,1.0547l1.0528-6.3779l6.3965,1.0537 l-1.0528,6.3769l6.3965,1.0567l1.0527-6.377l6.3926,1.0547l-1.0508,6.3779l6.3946,1.0537l1.0508-6.3779l2.8388,0.4697 c0.6309-2.0517,1.2871-4.1347,1.9737-6.2441l-3.7579-0.6211l-1.0517,6.3779L289.7256,94.9586z M257.2178,172.5621l0.7139-4.3242 l-1.2295-0.2032C256.8624,169.5767,257.0342,171.0865,257.2178,172.5621z M271.7735,163.9713l-1.0518,6.3759l6.3965,1.0557 l1.0527-6.377l6.0918,1.0059c0.2774-2.0928,0.5684-4.2285,0.878-6.4268l-5.916-0.9746l1.0341-6.2714l5.8086,0.956 c0.3174-2.085,0.6602-4.2197,1.0244-6.3984l-5.7783-0.9541l-1.0508,6.3769l-6.3974-1.0537l1.0517-6.3779l-6.3925-1.0537 l-1.0528,6.3759l-6.3965-1.0546l1.0518-6.375l-6.3936-1.0557l-0.3457,2.0928c0.0108,1.374,0.0245,2.7412,0.0538,4.0781 c0,0.1191,0.0048,0.2334,0.0078,0.3496l5.622,0.9287l-1.0332,6.2725l-4.3574-0.7188c0,0.0225,0.002,0.0449,0.0029,0.0674 c0.1104,2.25,0.2549,4.4307,0.4151,6.5693l2.8847,0.4756l-1.0517,6.378l6.3955,1.0537l1.0527-6.376L271.7735,163.9713z M279.2071,158.7349l-1.0332,6.2725l-6.3975-1.0547l1.0352-6.2734L279.2071,158.7349z M267.4688,150.2486l6.3936,1.0527 l-1.0352,6.2735l-6.3936-1.0547L267.4688,150.2486z M258.9864,161.8433l1.0342-6.2734l6.3974,1.0557l-1.0351,6.2724 L258.9864,161.8433z M223.6944,57.1832c2.1133,0.4765,4.2187,1.0058,6.3056,1.5879l1.0362-6.2813l-6.3946-1.0566L223.6944,57.1832z M294.0127,108.7867l-6.3935-1.0527l1.0517-6.378l-6.3945-1.0547l-1.0527,6.377l-6.3955-1.0557l1.0517-6.3769l-6.3965-1.0547 l-1.0507,6.3779l-6.3936-1.0547l1.0508-6.3779l-4.2158-0.6963c-0.3213,2.169-0.6192,4.3115-0.8907,6.4229l4.0528,0.6679 l-1.0528,6.378l6.3936,1.0537l1.0527-6.377l6.3975,1.0557l-1.0527,6.3779l6.3945,1.0537l-1.0527,6.376l-6.3946-1.0527l1.0528-6.377 l-6.3975-1.0566l-1.0518,6.3769l-6.3945-1.0527l1.0527-6.3779l-3.7695-0.6221c-0.2383,2.1836-0.4599,4.3418-0.6484,6.4629 l3.3633,0.5537l-1.0508,6.3769l6.3935,1.0557l-1.0351,6.2715l-6.3975-1.0557l1.0527-6.3779l-2.8242-0.4639 c-0.039,0.5381-0.0674,1.0674-0.1015,1.6016c-0.0889,1.4531-0.1768,2.9043-0.2471,4.3271 c-0.0078,0.1954-0.0166,0.3848-0.0254,0.5782l2.1436,0.3545l-1.0518,6.3769l-1.3232-0.2197 c-0.002,0.0762-0.0049,0.1562-0.0069,0.2334c-0.0508,2.1426-0.0781,4.2558-0.081,6.3232l0.3593,0.0576l1.0557-6.3935l6.3936,1.0537 l1.0507-6.3779l6.3965,1.0556l-1.0517,6.377l6.3935,1.0556l1.0528-6.3769l6.3964,1.0537l-1.0527,6.3779l5.8369,0.9619 c0.378-2.081,0.7862-4.2031,1.2168-6.3681l-5.998-0.9902l1.0332-6.2735l6.2646,1.0352c0.1719-0.8018,0.3516-1.6094,0.5332-2.4209 l0.6485-3.9336l0.2461,0.04c0.4853-2.0703,1-4.1748,1.539-6.3164l-0.7304-0.1211l-1.0518,6.377l-6.3936-1.0528l1.0528-6.3779 l-6.3955-1.0547l1.0507-6.3779l6.3956,1.0547l-1.0508,6.3779l6.3926,1.0537l1.0517-6.3769l1.3252,0.2197 c0.5576-2.0596,1.1436-4.1563,1.7578-6.2793l-2.0273-0.335L294.0127,108.7867z M265.2881,123.6314l1.0332-6.2715l6.3975,1.0528 l-1.0342,6.2734L265.2881,123.6314z M277.0274,132.1168l-6.3936-1.0528l1.0342-6.2734l6.3936,1.0547L277.0274,132.1168z M285.5088,120.522l-1.0341,6.2735l-6.3975-1.0567l1.0352-6.2715L285.5088,120.522z M237.4346,53.5269l1.0528-6.3779l6.3935,1.0537 l-1.0518,6.3789l6.3965,1.0527l1.0528-6.3769l6.3955,1.0557l-1.0528,6.3769l6.3955,1.0557l1.0508-6.378l6.3965,1.0547 l-1.0508,6.378l6.3936,1.0527l1.0517-6.3779l6.3965,1.0556l-1.0508,6.378l6.3936,1.0566l1.0527-6.3779l4.2246,0.6953 c-1.1699-0.9453-2.4599-1.8721-3.8818-2.7744l-0.3398,2.0595l-6.3955-1.0537l0.7236-4.3857 c-1.9551-1.0381-3.8897-2.044-5.8027-3.0049l-0.2657-0.043l0.0127-0.082c-2.0517-1.0283-4.0752-2.0059-6.081-2.9492l-0.3252,1.9756 l-6.3975-1.0537l0.6123-3.71c-2.0742-0.9111-4.1201-1.7734-6.1416-2.5967l-0.8652,5.252l-6.3955-1.0547l1.0244-6.2139 l1.9707,0.3262c-0.6367-0.2461-1.2715-0.4854-1.9043-0.7217l-0.0625,0.377l-6.3975-1.0538l0.2549-1.5429 c-2.1152-0.7188-4.1894-1.3799-6.2383-2.002l-0.4101,2.4903l-6.3955-1.0557l0.5322-3.2197 c-2.1426-0.5703-4.2461-1.0899-6.3125-1.5586l-0.6152,3.7236l-6.3965-1.0547l0.6582-3.9834 c-2.1777-0.4043-4.3086-0.7539-6.3945-1.0517l-0.6563,3.9814l-6.3945-1.0557l0.6093-3.6982 c-2.2226-0.2148-4.3876-0.374-6.4921-0.4736l-0.5147,3.1162l-6.3955-1.0537l0.3643-2.2061 c-2.2774,0.0088-4.4815,0.0801-6.6045,0.2129l-0.1543,0.9395l-3.7774-0.6221c-0.9297,0.0889-1.8437,0.1894-2.7402,0.2998 l-0.9063,5.4971l-6.3945-1.0557l0.5567-3.3721c-2.4258,0.4727-4.6983,1.0196-6.836,1.6094l-0.1162,0.709l-1.4922-0.2461 c-1.8994,0.5664-3.6797,1.1699-5.334,1.7939l-0.622,3.7774l-5.8418-0.9658c-0.209,0.1054-0.417,0.208-0.6192,0.3134l-0.9873,5.9913 l6.3936,1.0556l1.0508-6.3779l6.3964,1.0557l-1.0517,6.3769l6.3955,1.0547l1.0527-6.3779l6.3946,1.0537l-1.0518,6.3789 l6.3955,1.0547l1.0518-6.378l6.3955,1.0557l-1.0528,6.3779l6.3965,1.0537l1.0498-6.3779l6.3975,1.0547l-1.0508,6.3789 l6.3945,1.0557l1.0508-6.3789l6.3946,1.0547l-1.0528,6.3779l6.3975,1.0547l1.0517-6.378l6.3955,1.0547l-1.0517,6.378 L237.4346,53.5269z M271.4922,46.191l6.3936,1.0547l-1.0244,6.2129l-6.3936-1.0567L271.4922,46.191z M258.7002,44.0797 l6.3946,1.0546l-1.0244,6.2149l-6.3955-1.0547L258.7002,44.0797z M174.5372,36.5816l-6.3956-1.0547l1.0254-6.2138l6.3955,1.0556 L174.5372,36.5816z M252.3047,43.0269l-1.0244,6.2129l-6.3965-1.0557l1.0235-6.2138L252.3047,43.0269z M240.5665,34.5386 l6.3935,1.0557l-1.0254,6.2119l-6.3916-1.0547L240.5665,34.5386z M239.5157,40.9146l-1.0254,6.2158l-6.3955-1.0547l1.0254-6.2138 L239.5157,40.9146z M187.3262,38.692l-6.3935-1.0557l1.0254-6.2129l6.3935,1.0547L187.3262,38.692z M188.378,32.315l1.0254-6.2158 l6.3955,1.0576l-1.0254,6.2109L188.378,32.315z M200.1163,40.8004l-6.3946-1.0547l1.0254-6.2129l6.3945,1.0556L200.1163,40.8004z M201.169,34.4224l1.0254-6.2119l6.3965,1.0537l-1.0244,6.2158L201.169,34.4224z M212.9092,42.9107l-6.3955-1.0537l1.0254-6.2148 l6.3955,1.0546L212.9092,42.9107z M213.962,36.5328l1.0244-6.2129l6.3935,1.0547l-1.0244,6.2129L213.962,36.5328z M225.7002,45.0201l-6.3974-1.0547l1.0254-6.2139l6.3965,1.0557L225.7002,45.0201z M226.752,38.6422l1.0234-6.2129l6.3955,1.0547 l-1.0253,6.2138L226.752,38.6422z M210.9112,55.0298c2.3955,0.2852,4.4902,0.5831,6.1338,0.8526 c0.0947,0.0156,0.1904,0.0361,0.2841,0.0508l0.9161-5.5557l-6.3926-1.0537L210.9112,55.0298z M157.5284,60.0347l-6.2657-1.0312 c-0.0576,0.0898-0.1171,0.1894-0.1787,0.289l-1.0049,6.086l4.0333,0.665c1.0439-1.4502,2.0664-2.7344,3.0566-3.833l0.3564-2.1553 l1.542,0.2549c0.2715-0.2422,0.545-0.4785,0.8106-0.6836c1.3076-1,2.9062-1.8398,4.7109-2.5527l0.3877-2.3594l-6.3975-1.0547 L157.5284,60.0347z M130.1368,186.3052l1.0224-6.2031l-6.3965-1.0566l1.0528-6.377l-6.3955-1.0547l-0.918,5.5664 c0.0811,0.2998,0.1787,0.5967,0.2646,0.8955l5.9952,0.9893l-1.0342,6.2715l-2.4727-0.4072 c0.5801,1.2929,1.2198,2.5547,1.9131,3.7929l0.541-3.2793l6.3955,1.0528l-1.0234,6.2041l0.1582,0.0273l4.5-4.4131l0.2109-0.5429 l0.127-0.8155L130.1368,186.3052z M198.0069,53.5943l-6.3945-1.0557l1.0527-6.3798l-6.3965-1.0538l-1.0527,6.379l-6.3946-1.0547 l1.0518-6.378l-6.3945-1.0556l-1.0518,6.3789l-6.3945-1.0547l1.0527-6.3789l-6.3984-1.0547l-1.0518,6.3779l-6.3935-1.0537 l1.038-6.292l-6.3955-1.0556l-1.0517,6.3759l-0.835-0.1367c0.168,0.5264,0.3604,1.0723,0.586,1.6514l0.2451-1.4942l6.3955,1.0528 l-1.0371,6.2929l6.3925,1.0547l1.0528-6.3789l6.3965,1.0567l-1.0518,6.3769l4.7705,0.7871 c0.5645-0.1318,1.1406-0.2539,1.7305-0.3681l0.9473-5.7422l6.3945,1.0547l-0.6153,3.7295 c2.1592-0.2071,4.3868-0.3418,6.6368-0.4151l0.374-2.2578l6.3935,1.0527l-0.1884,1.1504c2.2099,0.0323,4.3994,0.1094,6.5332,0.2207 l0.0517-0.3164l3.003,0.4942c1.1767,0.08,2.3232,0.1709,3.4423,0.2656l1.0059-6.0996l-6.3965-1.0557L198.0069,53.5943z M135.0577,180.6744l1-6.4043l-3.8321-0.6319l-1.0556,6.3936L135.0577,180.6744z M127.1905,194.733l1.8554-1.8184l0.0235-0.1455 l-3.792-0.6269C125.878,193.0259,126.5225,193.8863,127.1905,194.733z M131.0616,140.8521l-1.0508,6.377l6.3945,1.0547 l-1.039,6.3105l3.6699,0.6035l0.999-6.4033l-3.6152-0.5967l1.041-6.3096l-6.3965-1.0556l1.0342-6.2715l6.3974,1.0566 l-1.0234,6.2022l3.5596,0.5879l1.0009-6.4033l-3.5068-0.5791l1.0235-6.2041l-6.3965-1.0547l0.8701-5.2735 c-1.4053-0.4521-2.6084-1.0156-3.374-1.6924l-2.8379-0.4667l-1.0508,6.3789l-5.5361-0.9141 c-0.5752,2.0937-1.1065,4.1973-1.5987,6.3047l6.0791,1.0029l-1.0342,6.2725l-6.3554-1.0479 c-0.4024,2.1348-0.751,4.2686-1.043,6.3975l6.3438,1.0459l1.0507-6.376L131.0616,140.8521z M126.7569,127.1304l6.3945,1.0547 l-1.0351,6.2715l-6.3926-1.0557L126.7569,127.1304z M281.4053,185.23l0.3086,0.0508c0.2988-2.082,0.5899-4.2187,0.8789-6.4238 l-0.1328-0.0225l0.6406-3.8779c0.1055-0.8281,0.2149-1.666,0.3233-2.5146l-6.3057-1.0391l-1.0527,6.3779l-6.3965-1.0556 l1.0527-6.378l-6.3945-1.0556l-1.0508,6.3779l-5.7812-0.9522c0.3125,2.3321,0.6504,4.5772,1.0146,6.7364l3.7119,0.6133 l-1.0351,6.2714l-1.4473-0.2392c0.2734,1.3515,0.5527,2.6572,0.8389,3.9287l0.6054-3.6729l6.3936,1.0547l-1.0508,6.377 l-5.2715-0.8682c0.5977,2.4571,1.2061,4.7451,1.8164,6.8692l2.4004,0.3964l-0.7968,4.8321 c0.1826,0.5488,0.3603,1.0888,0.5371,1.6054c0.0058,0.0245,0.0156,0.0479,0.0254,0.0733l5.5781,0.9199l-1.0332,6.2734 l-1.9707-0.3261c0.5547,1.3379,1.0459,2.4463,1.4687,3.3594l0.499-3.0176l3.917,0.6474c0.9473-1.9775,1.7803-4.0302,2.5313-6.1523 l-5.3945-0.8887l1.0351-6.2734l6.2402,1.0293c0.1446-0.5498,0.294-1.0987,0.4307-1.6582l0.7783-4.711l-6.3945-1.0547l-1.0518,6.378 l-6.3955-1.0557l1.0518-6.3779l6.3955,1.0556l1.0508-6.3759l6.3945,1.0527l-1.0508,6.3779l0.2647,0.044 c0.4209-2.0586,0.8076-4.1817,1.1709-6.377l-0.3819-0.0615L281.4053,185.23z M262.2393,181.9605l1.0342-6.2715l6.3935,1.0537 l-1.0351,6.2725L262.2393,181.9605z M273.9776,190.4468l-6.3975-1.0537l1.0352-6.2734l6.3974,1.0547L273.9776,190.4468z M275.0293,184.0699l1.0332-6.2715l6.3936,1.0557l-1.0352,6.2715L275.0293,184.0699z"/></g><g id="change1_5"><path fill="#1a1a1a" d="M188.2247,79.7134c-0.1993-0.0234-0.3936-0.0712-0.587-0.1484 c-7.6943-3.0752-21.6777-4.3916-21.8183-4.4043c-1.2539-0.1738-2.2149-1.2451-2.0967-2.5195 c0.1162-1.2744,1.2461-2.2139,2.5225-2.0947c0.6015,0.0556,14.789,1.3886,23.1123,4.7128c1.1894,0.4766,1.7675,1.8243,1.292,3.0118 C190.251,79.2681,189.2393,79.8375,188.2247,79.7134z"/></g><g id="change1_6"><path fill="#1a1a1a" d="M214.5342,84.6841c-0.9648-0.3476-1.6123-1.3085-1.5215-2.3779c0.1104-1.2754,1.2325-2.2207,2.5098-2.1103 c8.9268,0.7646,23.0381,6.248,23.6367,6.4814c1.1934,0.4658,1.7813,1.8106,1.3145,3.002c-0.458,1.1738-1.7647,1.7627-2.9444,1.3388 c-0.0175-0.0068-0.0361-0.0166-0.0556-0.0234c-0.1397-0.0566-14.0928-5.4736-22.3496-6.1826 C214.92,84.7965,214.7198,84.7506,214.5342,84.6841z"/></g><g id="change1_7"><path fill="#1a1a1a" d="M229.7745 210.1236L259.7393 188.0992 256.7022 168.0347 218.2627 199.2457z"/></g><g id="change5_3"><path fill="#333333" d="M190.4014,176.6148c-21.0928,0-34.3574-16.0615-34.5273-16.2734 c-0.6016-0.7461-0.4844-1.8379,0.2607-2.4414c0.751-0.6045,1.8408-0.4873,2.4443,0.2578 c0.836,1.0332,20.8086,25.0967,51.128,10.1953c0.8594-0.4248,1.9033-0.0674,2.3271,0.7949 c0.4239,0.8613,0.0684,1.9014-0.7939,2.3252C203.6905,175.1841,196.6963,176.6148,190.4014,176.6148z"/></g><g id="change4_2"><path fill="#c49370" d="M271.0752,323.0679c0,0-11.9472,12.6797-5.9091,23.8057c6.038,11.127,18.6093,11.6514,13.9941-11.8994 C274.5459,311.4175,271.0752,323.0679,271.0752,323.0679z"/></g><g id="change2_6"><path fill="#ffffff" d="M265.2374,208.6949c0,0,53.7568,50.6523,55.1298,65.7637c2.0362,22.414-34.9912,88.9043-34.9912,88.9043 l-13.6054-42.5215l24.9931-43.3731l-32.5713-31.0068L265.2374,208.6949z"/></g><g id="change4_3"><path fill="#c49370" d="M11.1602,131.1881c10.3145-9.2618,6.5488,28.0625,13.6436,32.2373c4.2187,2.4814,0,16.3476,0,16.3476 S0.001,167.3472,0,163.8619c-0.0009-5.3906,11.1602-0.4365,11.1602-0.4365V131.1881z"/></g><g id="change2_7"><path fill="#ffffff" d="M24.8038,163.4254l-9.4239,39.5625c0,0,37.6035,36.1777,55.709,37.0732 c16.3301,0.8096,62.6953-8.4189,62.6953-8.4189l-0.332-36.0723l-56.0898,19.2793L24.8038,163.4254z"/></g></g></svg>