<svg width="20.1" height="18" viewBox="1.9 3 20.1 18" xmlns="http://www.w3.org/2000/svg" xmlns:xlink="http://www.w3.org/1999/xlink" fill="none" overflow="hidden"><style>
.MsftOfcThm_Text1_lumMod_65_lumOff_35_Fill_v2 {
 fill:#595959; 
}
</style>
<g id="change1_1"><path d="M3 13 15 13 15 11 3 11 3 13Z" class="MsftOfcThm_Text1_lumMod_65_lumOff_35_Fill_v2" fill="#595959" fill-rule="evenodd" clip-rule="evenodd"/></g><g id="change1_2"><path d="M5.79282 7.79291 2.29282 11.2929C1.90229 11.6834 1.90229 12.3166 2.29282 12.7071L5.79282 16.2071 7.20703 14.7929 4.41414 12 7.20703 9.20712 5.79282 7.79291Z" class="MsftOfcThm_Text1_lumMod_65_lumOff_35_Fill_v2" fill="#595959" fill-rule="evenodd" clip-rule="evenodd"/></g><g id="change1_3"><path d="M8 4C8 3.44772 8.44772 3 9 3L21 3C21.5523 3 22 3.44772 22 4L22 20C22 20.5523 21.5523 21 21 21L9 21C8.44772 21 8 20.5523 8 20L8 17 10 17 10 19 20 19 20 5 10 5 10 7 8 7 8 4Z" class="MsftOfcThm_Text1_lumMod_65_lumOff_35_Fill_v2" fill="#595959" fill-rule="evenodd" clip-rule="evenodd"/></g></svg>