<?xml version="1.0" encoding="UTF-8" standalone="no"?><svg xmlns="http://www.w3.org/2000/svg" xmlns:xlink="http://www.w3.org/1999/xlink" contentScriptType="text/ecmascript" fill="#000000" width="981.6" zoomAndPan="magnify" contentStyleType="text/css" viewBox="10.0 196.9 981.6 614.9" height="614.9" preserveAspectRatio="xMidYMid meet" version="1"><g><g id="change1_1"><path d="M1903,1932.6C911.4,1266.7,100,713.5,100,703.3c0-12.3,811.4-569.6,1803-1241.6l1803-1221.1l10.2,723.3l10.2,723.3l327.8,34.8c1540.8,165.9,2448.4,184.4,3216.8,65.6c502-75.8,1004-256.1,1342-483.5c612.6-409.8,1063.4-1133,1227.3-1969c22.5-114.7,47.1-227.4,51.2-250c24.6-92.2-10.2,835.9-36.9,1036.7c-73.8,547-219.2,940.4-485.6,1329.7C8920.5,105,8289.4,568.1,7342.8,943c-786.8,311.4-1643.2,508.1-2991.4,690.5c-299.1,38.9-563.4,77.9-588,82l-47.1,10.2l-4.1,708.9l-6.1,706.9L1903,1932.6z" transform="matrix(.1 0 0 -.1 0 511)"/></g></g></svg>