<svg width="463.9" height="438.9" viewBox="0 -0 463.9 438.9" xmlns="http://www.w3.org/2000/svg" xmlns:xlink="http://www.w3.org/1999/xlink" overflow="hidden"><style>
.MsftOfcThm_Text1_lumMod_65_lumOff_35_Fill_v2 {
 fill:#595959; 
}
</style>
<g id="change1_1"><path d="M437.15 499.44 274.34 355.25 111.43 499.5 111.43 705.62C111.43 710.943 115.732 715.214 121.055 715.214L222.865 715.214 222.865 624.839C222.865 619.515 227.135 615.214 232.459 615.214L316.115 615.214C321.438 615.214 325.709 619.515 325.709 624.839L325.709 715.214 427.549 715.214C432.872 715.214 437.142 710.943 437.142 705.62L437.142 499.43Z" class="MsftOfcThm_Text1_lumMod_65_lumOff_35_Fill_v2" fill="#595959" transform="translate(-42.339 -276.34)"/><path d="M273.39 276.34 42.34 480.92 66.678 508.377 274.338 324.497 481.948 508.377 506.239 480.92 275.239 276.34 274.341 277.38 273.396 276.34Z" class="MsftOfcThm_Text1_lumMod_65_lumOff_35_Fill_v2" fill="#595959" transform="translate(-42.339 -276.34)"/><path d="M111.43 305.79 170.001 305.79 169.491 340.481 111.43 392.933 111.43 305.79Z" class="MsftOfcThm_Text1_lumMod_65_lumOff_35_Fill_v2" fill="#595959" transform="translate(-42.339 -276.34)"/></g></svg>