<?xml version="1.0" encoding="UTF-8" standalone="no"?><svg xmlns="http://www.w3.org/2000/svg" xmlns:xlink="http://www.w3.org/1999/xlink" contentScriptType="text/ecmascript" zoomAndPan="magnify" text-rendering="geometricPrecision" contentStyleType="text/css" version="1" width="6720.8" shape-rendering="geometricPrecision" clip-rule="evenodd" fill="#000000" preserveAspectRatio="xMidYMid meet" viewBox="-0.0 -0.0 6720.8 18855.1" height="18855.1" fill-rule="evenodd" image-rendering="optimizeQuality"><g><g fill="#edbf28" id="change1_1" fill-rule="nonzero"><path d="M4921.87 18448.68l717.75 0c11.75,0 22.48,-4.87 30.31,-12.7 7.84,-7.84 12.71,-18.59 12.71,-30.31l0 -43.01 -803.78 0 0 43.01c0,11.72 4.87,22.47 12.71,30.31l2.49 2.62c7.39,6.28 17.12,10.08 27.81,10.08zm438.99 -14152.97l0 7716.5 82.6 0c44.23,0 80.1,35.87 80.1,80.1l0 166.12 116.06 0c55.99,0 106.81,22.84 143.59,59.64 36.79,36.78 59.63,87.63 59.63,143.59l0 75.31c163.27,89.89 327.12,211.76 457.28,391.25 131.15,180.84 226.96,418.65 251.52,738.58l89.04 0c44.23,0 80.1,35.87 80.1,80.11l0 225.84c0,44.24 -35.87,80.11 -80.1,80.11l-73.64 0 0 2387.66 0 373.94 73.64 0c44.23,0 80.1,35.87 80.1,80.11l0 225.85c0,44.23 -35.87,80.1 -80.1,80.1l-89.04 0c-24.56,319.93 -120.37,557.75 -251.52,738.58 -130.16,179.49 -294.01,301.36 -457.28,391.25l0 75.32c0,55.96 -22.84,106.8 -59.63,143.58 -36.78,36.79 -87.6,59.63 -143.59,59.63l-116.06 0 0 166.13c0,44.24 -35.87,80.11 -80.1,80.11l-325.42 0c-44.24,0 -80.11,-35.87 -80.11,-80.11l0 -166.13 -116.06 0c-52.9,0 -101.37,-20.66 -137.77,-54.36 -2,-1.64 -3.95,-3.4 -5.82,-5.27 -36.78,-36.78 -59.63,-87.62 -59.63,-143.58l0 -75.33c-163.26,-89.89 -327.12,-211.75 -457.27,-391.24 -131.15,-180.83 -226.95,-418.65 -251.51,-738.58l-89.05 0c-44.23,0 -80.1,-35.87 -80.1,-80.1l0 -225.85c0,-44.24 35.87,-80.11 80.1,-80.11l73.64 0 0 -373.94 0 -2387.66 -73.64 0c-44.23,0 -80.1,-35.87 -80.1,-80.11l0 -225.84c0,-44.24 35.87,-80.11 80.1,-80.11l89.05 0c24.56,-319.93 120.36,-557.74 251.51,-738.58 130.15,-179.48 294.01,-301.35 457.27,-391.24l0 -75.32c0,-55.98 22.85,-106.81 59.63,-143.59 1.87,-1.87 3.82,-3.63 5.82,-5.27 36.4,-33.7 84.87,-54.37 137.77,-54.37l116.06 0 0 -166.12c0,-44.23 35.87,-80.1 80.11,-80.1l82.61 0 0 -7716.5 160.21 0zm778.88 12325.57l-145.75 193.18 291.5 0 -145.75 -193.18zm-194.23 44.97l109.87 -145.64 -403.94 0 201.98 267.71 92.09 -122.07zm278.59 -145.64l182.74 242.21 0 -242.21 -182.74 0zm-943.35 267.7l201.98 -267.7 -403.95 0 201.97 267.7zm378.43 -44.96l-92.1 -122.07 -145.75 193.18 291.5 0 -53.65 -71.11zm-664.76 -122.07l-145.75 193.18 291.5 0 -145.75 -193.18zm-194.24 44.97l109.88 -145.64 -403.93 0 201.96 267.71 92.09 -122.07zm-645.51 96.58l182.73 -242.22 -182.73 0 0 242.22zm359.19 -19.48l-92.09 -122.07 -145.76 193.18 291.49 0 -53.64 -71.11zm684.28 1951.55l165.21 0 0 -86.01 -165.21 0 0 86.01zm917.4 -1494.38c-17.88,198.68 -63.41,462.54 -175.6,696.15 -53.99,112.41 -123.23,217.7 -211.96,305.78l15.41 0c152.87,-81.29 307.36,-191.97 427.2,-357.22 113.67,-156.75 197.31,-364.17 220.82,-644.71l-275.87 0zm-650.3 1001.93c151.29,-83.92 256.99,-221 330.76,-374.62 99.39,-206.93 141.53,-444.16 158.97,-627.31l-1348.43 0c17.44,183.15 59.57,420.38 158.96,627.31 73.78,153.62 179.48,290.7 330.77,374.62l368.97 0zm-631.72 0c-88.73,-88.08 -157.97,-193.37 -211.95,-305.78 -112.19,-233.61 -157.73,-497.47 -175.6,-696.15l-275.88 0c23.51,280.54 107.16,487.96 220.83,644.71 119.84,165.25 274.33,275.93 427.19,357.22l15.41 0zm-81.63 -3250.4c0,-287 136,-343.44 277.71,-402.26 75.27,-31.25 152.72,-63.39 193.33,-150.02 14.92,-31.94 52.92,-45.72 84.86,-30.79 14.11,6.59 24.67,17.69 30.78,30.79 40.61,86.63 118.07,118.77 193.34,150.02 141.7,58.82 277.7,115.26 277.7,402.26l0 1408.36 597.23 0 0 -2307.55 -2252.17 0 0 2307.55 597.22 0 0 -1408.36zm1203.08 -1285.25c-17.42,-183.14 -59.58,-420.37 -158.97,-627.32 -73.77,-153.6 -179.47,-290.68 -330.76,-374.61l-368.97 0c-151.29,83.93 -256.99,221.01 -330.77,374.61 -99.39,206.95 -141.54,444.18 -158.96,627.32l1348.43 0zm-226.99 -1001.93c88.73,88.08 157.97,193.37 211.96,305.78 112.19,233.62 157.72,497.48 175.6,696.15l275.87 0c-23.51,-280.54 -107.15,-487.95 -220.82,-644.71 -119.84,-165.25 -274.33,-275.93 -427.2,-357.22l-15.41 0zm-1282.01 1001.93c17.87,-198.67 63.41,-462.53 175.6,-696.15 53.98,-112.41 123.22,-217.7 211.95,-305.78l-15.41 0c-152.86,81.29 -307.35,191.97 -427.19,357.22 -113.67,156.76 -197.32,364.17 -220.83,644.71l275.88 0zm997.49 -1248.16l-325.42 0 -196.17 0c-10.69,0 -20.42,3.8 -27.81,10.08l-2.49 2.63c-7.84,7.83 -12.71,18.57 -12.71,30.31l0 43 803.78 0 0 -43c0,-11.74 -4.87,-22.48 -12.71,-30.31 -7.83,-7.85 -18.56,-12.71 -30.31,-12.71l-196.16 0zm-1442.54 4621.68l2559.66 0 0 -65.65 -73.64 0 -2412.37 0 -73.65 0 0 65.65zm2559.66 -3213.32l-2559.66 0 0 65.65 73.65 0 2412.37 0 73.64 0 0 -65.65zm-1197.23 -1654.58l-165.21 0 0 86.01 165.21 0 0 -86.01z"/><path d="M1081.15 14152.96l717.75 0c11.75,0 22.48,-4.86 30.31,-12.69 7.84,-7.84 12.71,-18.59 12.71,-30.31l0 -43.01 -803.78 0 0 43.01c0,11.72 4.87,22.47 12.71,30.31l2.49 2.62c7.39,6.28 17.12,10.07 27.81,10.07zm438.99 -14152.96l0 7716.5 82.6 0c44.23,0 80.1,35.87 80.1,80.1l0 166.12 116.06 0c55.99,0 106.81,22.84 143.59,59.64 36.79,36.78 59.63,87.62 59.63,143.59l0 75.31c163.27,89.89 327.12,211.75 457.28,391.25 131.15,180.84 226.96,418.65 251.52,738.58l89.04 0c44.23,0 80.1,35.87 80.1,80.1l0 225.85c0,44.24 -35.87,80.11 -80.1,80.11l-73.64 0 0 2387.66 0 373.94 73.64 0c44.23,0 80.1,35.87 80.1,80.1l0 225.86c0,44.23 -35.87,80.1 -80.1,80.1l-89.04 0c-24.56,319.93 -120.37,557.75 -251.52,738.58 -130.16,179.49 -294.01,301.36 -457.28,391.25l0 75.32c0,55.96 -22.84,106.8 -59.63,143.58 -36.78,36.79 -87.6,59.63 -143.59,59.63l-116.06 0 0 166.13c0,44.24 -35.87,80.11 -80.1,80.11l-325.42 0c-44.24,0 -80.11,-35.87 -80.11,-80.11l0 -166.13 -116.06 0c-52.9,0 -101.37,-20.66 -137.77,-54.36 -2,-1.65 -3.95,-3.4 -5.82,-5.27 -36.78,-36.78 -59.63,-87.62 -59.63,-143.58l0 -75.33c-163.26,-89.89 -327.12,-211.75 -457.27,-391.24 -131.15,-180.83 -226.95,-418.65 -251.51,-738.58l-89.05 0c-44.23,0 -80.1,-35.87 -80.1,-80.1l0 -225.86c0,-44.23 35.87,-80.1 80.1,-80.1l73.64 0 0 -373.94 0 -2387.66 -73.64 0c-44.23,0 -80.1,-35.87 -80.1,-80.11l0 -225.85c0,-44.23 35.87,-80.1 80.1,-80.1l89.05 0c24.56,-319.93 120.36,-557.74 251.51,-738.58 130.15,-179.48 294.01,-301.35 457.27,-391.24l0 -75.32c0,-55.98 22.85,-106.81 59.63,-143.59 1.87,-1.87 3.82,-3.63 5.82,-5.27 36.4,-33.7 84.87,-54.37 137.77,-54.37l116.06 0 0 -166.12c0,-44.23 35.87,-80.1 80.11,-80.1l82.61 0 0 -7716.5 160.21 0zm778.88 12325.57l-145.75 193.18 291.5 0 -145.75 -193.18zm-194.23 44.97l109.87 -145.64 -403.94 0 201.98 267.71 92.09 -122.07zm278.59 -145.64l182.74 242.21 0 -242.21 -182.74 0zm-943.35 267.7l201.98 -267.7 -403.95 0 201.97 267.7zm378.43 -44.96l-92.1 -122.07 -145.75 193.18 291.5 0 -53.65 -71.11zm-664.76 -122.07l-145.75 193.18 291.5 0 -145.75 -193.18zm-194.24 44.97l109.88 -145.64 -403.93 0 201.96 267.71 92.09 -122.07zm-645.51 96.58l182.73 -242.22 -182.73 0 0 242.22zm359.19 -19.48l-92.09 -122.07 -145.76 193.18 291.49 0 -53.64 -71.11zm684.28 1951.55l165.21 0 0 -86.01 -165.21 0 0 86.01zm917.4 -1494.38c-17.88,198.68 -63.41,462.54 -175.6,696.15 -53.99,112.41 -123.23,217.7 -211.96,305.78l15.41 0c152.87,-81.29 307.35,-191.97 427.2,-357.22 113.67,-156.75 197.31,-364.17 220.82,-644.71l-275.87 0zm-650.3 1001.93c151.29,-83.93 256.99,-221 330.76,-374.62 99.39,-206.93 141.53,-444.16 158.97,-627.31l-1348.43 0c17.43,183.15 59.57,420.38 158.96,627.31 73.78,153.62 179.48,290.69 330.77,374.62l368.97 0zm-631.72 0c-88.73,-88.08 -157.97,-193.37 -211.95,-305.78 -112.2,-233.61 -157.73,-497.47 -175.6,-696.15l-275.88 0c23.51,280.54 107.16,487.96 220.83,644.71 119.84,165.25 274.33,275.93 427.19,357.22l15.41 0zm-81.63 -3250.4c0,-287 136,-343.44 277.71,-402.26 75.27,-31.25 152.72,-63.39 193.32,-150.02 14.93,-31.94 52.93,-45.72 84.87,-30.79 14.11,6.59 24.67,17.69 30.78,30.79 40.61,86.63 118.07,118.77 193.34,150.02 141.7,58.82 277.7,115.26 277.7,402.26l0 1408.36 597.23 0 0 -2307.55 -2252.17 0 0 2307.55 597.22 0 0 -1408.36zm1203.08 -1285.25c-17.43,-183.14 -59.58,-420.38 -158.97,-627.32 -73.77,-153.6 -179.47,-290.68 -330.76,-374.62l-368.97 0c-151.29,83.94 -256.99,221.02 -330.77,374.62 -99.39,206.94 -141.54,444.18 -158.96,627.32l1348.43 0zm-226.99 -1001.94c88.73,88.09 157.97,193.38 211.96,305.79 112.19,233.62 157.72,497.48 175.6,696.15l275.87 0c-23.51,-280.54 -107.15,-487.95 -220.82,-644.71 -119.85,-165.25 -274.33,-275.93 -427.2,-357.23l-15.41 0zm-1282.01 1001.94c17.87,-198.67 63.4,-462.53 175.6,-696.15 53.98,-112.41 123.22,-217.7 211.95,-305.79l-15.41 0c-152.86,81.3 -307.35,191.98 -427.19,357.23 -113.67,156.76 -197.32,364.17 -220.83,644.71l275.88 0zm997.49 -1248.16l-325.42 0 -196.17 0c-10.69,0 -20.42,3.8 -27.81,10.08l-2.49 2.63c-7.84,7.83 -12.71,18.57 -12.71,30.31l0 43 803.78 0 0 -43c0,-11.74 -4.87,-22.48 -12.71,-30.31 -7.83,-7.85 -18.56,-12.71 -30.31,-12.71l-196.16 0zm-1442.54 4621.68l2559.66 0 0 -65.65 -73.64 0 -2412.38 0 -73.64 0 0 65.65zm2559.66 -3213.32l-2559.66 0 0 65.65 73.64 0 2412.38 0 73.64 0 0 -65.65zm-1197.23 -1654.58l-165.21 0 0 86.01 165.21 0 0 -86.01z"/></g></g></svg>