<?xml version="1.0" encoding="UTF-8" standalone="no"?><svg xmlns="http://www.w3.org/2000/svg" xmlns:xlink="http://www.w3.org/1999/xlink" contentScriptType="text/ecmascript" fill="#000000" width="18" zoomAndPan="magnify" contentStyleType="text/css" viewBox="3.0 3.0 18.0 18.0" height="18" preserveAspectRatio="xMidYMid meet" version="1"><g id="change1_1"><path fill="inherit" d="M 5 3 C 3.895 3 3 3.895 3 5 L 3 12 C 3 13.105 3.895 14 5 14 L 10 14 L 10 19 C 10 20.105 10.895 21 12 21 L 19 21 C 20.105 21 21 20.105 21 19 L 21 12 C 21 10.895 20.105 10 19 10 L 14 10 L 14 5 C 14 3.895 13.105 3 12 3 L 5 3 z M 7.8515625 5 L 9.1445312 5 L 10.837891 10.378906 C 10.33232 10.741779 10 11.329853 10 12 L 9.8378906 12 L 9.4628906 10.566406 L 7.5351562 10.566406 L 7.1601562 12 L 5.6640625 12 L 7.8515625 5 z M 8.4960938 6.8945312 L 7.8417969 9.3886719 L 9.1503906 9.3886719 L 8.4960938 6.8945312 z M 15.212891 12 C 16.243891 12 16.800781 12.402344 16.800781 12.402344 L 16.800781 13.027344 C 16.800781 13.027344 16.176672 12.775391 15.513672 12.775391 C 15.328672 12.775391 14.802734 12.943187 14.802734 13.367188 C 14.802734 13.899188 15.613703 14.052734 15.845703 14.052734 C 16.504703 14.052734 17.191406 13.871094 17.191406 13.871094 L 16.757812 15.5 C 16.757812 15.5 16.100875 14.837578 15.171875 15.267578 C 14.504875 15.575578 14.348281 16.478156 14.488281 16.785156 C 15.171281 18.275156 18.123047 18.125 18.123047 18.125 C 18.123047 18.125 17.262672 18.998047 15.513672 18.998047 C 14.351672 18.998047 12.876953 18.339578 12.876953 17.017578 C 12.876953 15.698578 14.197266 15.037109 14.197266 15.037109 C 14.197266 15.037109 13.550781 14.404031 13.550781 13.582031 C 13.550781 12.842031 14.394891 12 15.212891 12 z"/></g></svg>