<?xml version="1.0" encoding="UTF-8" standalone="no"?><svg xmlns="http://www.w3.org/2000/svg" xmlns:xlink="http://www.w3.org/1999/xlink" contentScriptType="text/ecmascript" fill="#000000" width="32.7" zoomAndPan="magnify" contentStyleType="text/css" viewBox="0.0 0.0 32.7 61.1" height="61.1" preserveAspectRatio="xMidYMid meet" version="1"><defs><clipPath id="a"><path d="M 0 0 L 32.738281 0 L 32.738281 61.058594 L 0 61.058594 Z M 0 0"/></clipPath></defs><g><g id="change1_2"><path fill="#442816" d="M 4.597656 39.976562 C 4.65625 40.050781 4.71875 40.085938 4.820312 39.941406 C 4.730469 39.917969 4.664062 39.914062 4.597656 39.976562"/></g><g id="change1_1" clip-path="url(#a)"><path fill="#442816" d="M 32.511719 33.957031 C 32.308594 33.445312 32.035156 33.042969 31.753906 32.71875 C 31.171875 32.066406 30.574219 31.601562 29.8125 31.105469 C 29.398438 30.832031 28.917969 30.648438 28.40625 30.523438 C 27.894531 30.402344 27.304688 30.382812 26.867188 30.429688 C 25.921875 30.464844 24.988281 30.6875 24.140625 30.902344 C 22.132812 31.40625 20.390625 32.53125 19.046875 33.941406 C 17.707031 35.347656 16.742188 36.9375 15.976562 38.582031 C 15.214844 40.230469 14.648438 41.941406 14.210938 43.761719 C 13.984375 44.742188 13.882812 45.722656 13.878906 46.699219 C 13.722656 46.683594 13.566406 46.664062 13.414062 46.652344 C 12.621094 46.570312 11.863281 46.527344 10.757812 46.617188 C 11.054688 45.839844 10.09375 45.742188 9.71875 45.488281 C 9.324219 45.390625 8.996094 45.164062 8.773438 44.816406 C 8.460938 44.894531 8.144531 44.914062 7.816406 44.90625 C 8.152344 44.476562 7.359375 43.589844 6.617188 42.582031 C 5.847656 41.601562 5.140625 40.46875 4.929688 40.164062 C 4.785156 40.28125 4.625 40.324219 4.449219 40.285156 C 4.40625 40.148438 4.449219 40.046875 4.582031 39.972656 C 4.777344 39.496094 4.632812 39.246094 4.113281 39.152344 C 3.960938 38.359375 4.519531 37.972656 3.550781 37.535156 C 4.015625 37.21875 3.480469 35.964844 3.46875 35.476562 C 3.410156 34.46875 3.066406 33.527344 2.644531 32.53125 C 2.839844 32.296875 3.015625 32.734375 3.246094 32.488281 C 2.78125 32.117188 2.953125 30.539062 2.996094 29.988281 C 3.027344 28.839844 3.160156 29 2.421875 28.214844 C 2.722656 28.28125 2.960938 28.195312 3.140625 27.964844 C 2.96875 27.867188 2.832031 27.738281 2.722656 27.578125 C 3.230469 27.488281 3.109375 27.058594 3.21875 26.578125 L 3.574219 26.230469 C 3.402344 26.003906 3.300781 25.75 3.28125 25.472656 C 3.375 25.148438 3.816406 24.738281 3.90625 24.476562 C 4.074219 24.015625 3.699219 23.894531 3.757812 23.664062 C 3.957031 22.824219 4.695312 22.039062 4.769531 21.121094 C 4.496094 21.042969 4.273438 20.898438 4.09375 20.683594 C 4.328125 20.441406 4.613281 20.316406 4.949219 20.296875 C 4.9375 20.136719 4.882812 19.988281 4.785156 19.851562 C 5.144531 19.570312 5.398438 19.222656 5.519531 18.789062 C 5.929688 17.992188 5.949219 17.859375 5.539062 17.386719 C 5.558594 16.632812 6.609375 16.507812 6.824219 15.90625 C 6.957031 15.476562 6.949219 15.050781 6.796875 14.613281 C 7.023438 14.644531 7.207031 14.582031 7.34375 14.429688 C 7.589844 13.878906 7.824219 14.15625 7.714844 13.398438 C 7.609375 12.644531 7.464844 13.351562 7.097656 13.042969 C 7.210938 12.875 7.222656 12.699219 7.132812 12.519531 C 6.875 12.601562 6.667969 12.753906 6.5 12.96875 C 6.605469 11.695312 6.96875 12.625 7.691406 12.421875 C 8.082031 12.257812 8.453125 12.0625 8.8125 11.847656 C 9.273438 11.753906 9.324219 11.523438 8.972656 11.152344 C 8.925781 11.214844 9.605469 9.859375 9.535156 10.324219 C 9.644531 9.691406 9.320312 9.949219 9.140625 9.230469 C 9.527344 9.445312 10.265625 9.929688 10.441406 9.289062 C 10.222656 9.226562 10.035156 9.121094 9.867188 8.964844 C 10.140625 8.433594 10.601562 8.296875 10.875 7.59375 C 12.027344 7.925781 11.148438 7.496094 11.503906 6.96875 C 11.964844 6.296875 12.6875 5.9375 13.265625 5.480469 C 13.691406 5.105469 14.792969 4.472656 15.097656 4.105469 C 15.425781 3.65625 15.230469 2.738281 16.117188 3.09375 C 16.148438 3.0625 15.070312 3.398438 15.710938 3.765625 C 15.757812 3.78125 16.109375 3.582031 16.476562 3.460938 C 16.65625 3.386719 16.84375 3.335938 16.984375 3.300781 C 17.121094 3.261719 17.214844 3.234375 17.214844 3.234375 L 16.847656 -0.00390625 C 16.847656 -0.00390625 16.449219 0.0585938 15.941406 0.167969 C 15.429688 0.292969 14.835938 0.5 14.402344 0.675781 C 14.265625 0.734375 13.523438 1.046875 13.035156 1.410156 C 12.621094 1.730469 12.371094 2.019531 12.703125 2.035156 C 12.414062 2.175781 11.859375 2.574219 11.355469 3.074219 C 10.597656 3.796875 9.964844 4.671875 9.886719 4.769531 C 8.980469 5.945312 8.105469 7.382812 7.34375 8.542969 C 6.621094 9.621094 5.835938 10.691406 5.1875 11.855469 C 4.457031 13.210938 4.195312 14.085938 3.390625 15.25 C 2.511719 16.519531 2.199219 18.257812 1.695312 19.707031 C 1.09375 21.398438 0.640625 23.128906 0.375 24.921875 C 0.109375 26.703125 0.00390625 28.464844 0.00390625 30.21875 C -0.0195312 31.976562 0.0742188 33.734375 0.238281 35.558594 C 0.578125 39.289062 2.503906 42.8125 5.171875 45.535156 C 6.496094 46.898438 8.269531 47.925781 10.152344 48.546875 C 11.441406 48.976562 12.765625 49.199219 14.09375 49.328125 C 14.09375 49.347656 14.097656 49.367188 14.097656 49.390625 C 14.410156 51.25 15 53.066406 15.878906 54.796875 C 16.738281 56.507812 18.199219 58.070312 19.976562 59.074219 C 21.738281 60.082031 23.636719 60.664062 25.617188 60.996094 C 26.136719 61.101562 27.570312 61.121094 28.851562 60.714844 C 29.492188 60.535156 30.074219 60.261719 30.492188 60.039062 C 30.898438 59.792969 31.160156 59.636719 31.160156 59.636719 L 29.140625 56.925781 C 29.140625 56.925781 29.039062 57.046875 28.902344 57.210938 C 28.769531 57.382812 28.558594 57.542969 28.390625 57.65625 C 27.742188 58.066406 26.851562 58.328125 26.039062 58.324219 C 25.058594 58.332031 24.28125 58.058594 23.539062 57.839844 C 22.785156 57.609375 22.054688 57.445312 20.96875 57.3125 C 21.421875 56.601562 20.511719 56.347656 20.246094 56 C 19.890625 55.84375 19.644531 55.519531 19.53125 55.136719 C 19.21875 55.125 18.890625 55.082031 18.59375 54.96875 C 19.03125 54.652344 18.546875 53.597656 18.144531 52.429688 C 17.734375 51.261719 17.386719 49.949219 17.285156 49.601562 C 17.109375 49.664062 16.945312 49.65625 16.785156 49.570312 C 16.785156 49.503906 16.804688 49.449219 16.839844 49.40625 C 16.910156 49.402344 16.988281 49.394531 17.0625 49.386719 C 17.09375 49.417969 17.140625 49.417969 17.210938 49.371094 C 17.214844 49.371094 17.21875 49.371094 17.222656 49.371094 C 17.757812 49.277344 18.390625 49.15625 18.96875 48.984375 C 20.128906 48.648438 21.085938 48.183594 21.085938 48.183594 L 19.523438 45.1875 C 19.523438 45.1875 19.382812 45.3125 19.199219 45.472656 C 19.011719 45.628906 18.773438 45.820312 18.566406 45.914062 C 18.183594 46.105469 17.773438 46.324219 17.335938 46.445312 C 17.183594 46.492188 17.027344 46.539062 16.875 46.585938 C 17.050781 46.4375 17.128906 46.128906 17.167969 45.789062 C 17.226562 45.378906 17.242188 44.9375 17.292969 44.710938 C 17.570312 43.773438 17.523438 42.800781 17.511719 41.75 C 17.773438 41.605469 17.78125 42.066406 18.082031 41.929688 C 17.777344 41.425781 18.523438 40.078125 18.789062 39.632812 C 19.289062 38.648438 19.34375 38.871094 19.027344 37.839844 C 19.261719 38.039062 19.511719 38.078125 19.78125 37.984375 C 19.679688 37.820312 19.613281 37.644531 19.59375 37.453125 C 20.074219 37.632812 20.148438 37.207031 20.496094 36.898438 L 20.960938 36.816406 C 20.917969 36.53125 20.96875 36.28125 21.101562 36.0625 C 21.367188 35.882812 21.902344 35.8125 22.128906 35.710938 C 22.503906 35.5 22.300781 35.167969 22.472656 35.03125 C 23.136719 34.601562 24.074219 34.632812 24.71875 34.238281 C 24.628906 33.972656 24.605469 33.707031 24.667969 33.4375 C 24.972656 33.5 25.207031 33.652344 25.375 33.953125 C 25.488281 33.875 25.574219 33.761719 25.636719 33.617188 C 25.820312 33.710938 26 33.773438 26.179688 33.792969 C 26.363281 33.835938 26.542969 33.859375 26.734375 33.835938 C 26.921875 33.855469 27.070312 33.867188 27.1875 33.863281 C 27.292969 33.867188 27.355469 33.863281 27.421875 33.832031 C 27.550781 33.78125 27.648438 33.648438 27.816406 33.394531 C 28.121094 33.335938 28.339844 33.5625 28.472656 33.828125 C 28.621094 34.085938 28.683594 34.375 28.871094 34.464844 C 29.144531 34.574219 29.414062 34.574219 29.804688 34.542969 C 29.644531 34.710938 29.597656 34.847656 29.570312 34.941406 C 29.691406 35.160156 29.332031 35.089844 29.78125 35.246094 C 30.171875 35.554688 30.042969 35.246094 30.492188 35.3125 C 30.453125 35.445312 30.496094 35.5625 30.632812 35.707031 C 30.847656 35.613281 31.019531 35.414062 31.0625 35.152344 C 31.292969 35.75 31.113281 35.917969 30.933594 35.878906 C 30.738281 35.851562 30.445312 35.730469 30.121094 35.777344 C 29.78125 35.867188 29.445312 35.925781 29.054688 36.089844 C 28.585938 36.121094 28.503906 36.339844 28.800781 36.757812 C 28.851562 36.703125 27.988281 37.941406 28.125 37.496094 C 27.929688 38.101562 28.285156 37.894531 28.359375 38.632812 C 28.007812 38.363281 27.355469 37.777344 27.078125 38.378906 C 27.285156 38.472656 27.460938 38.605469 27.597656 38.785156 C 27.246094 39.269531 26.773438 39.347656 26.398438 40.015625 C 25.289062 39.539062 26.113281 40.085938 25.683594 40.570312 C 25.132812 41.203125 24.359375 41.511719 23.730469 41.992188 C 23.488281 42.164062 23.066406 42.445312 22.671875 42.75 C 22.261719 43.03125 21.878906 43.335938 21.726562 43.585938 C 21.355469 44.109375 21.75 44.992188 20.734375 44.867188 C 20.703125 44.910156 21.804688 44.277344 21.066406 44.070312 C 20.980469 44.101562 19.519531 45.179688 19.503906 45.144531 L 21.011719 48.035156 C 21.011719 48.035156 21.332031 47.878906 21.714844 47.628906 C 22.101562 47.386719 22.589844 47.101562 22.921875 46.867188 C 23.15625 46.757812 24.984375 45.464844 24.292969 45.441406 C 24.554688 45.300781 25.050781 44.910156 25.542969 44.457031 C 26.269531 43.792969 26.980469 43.023438 27.054688 42.929688 C 28.050781 41.886719 29.097656 40.613281 30.035156 39.574219 C 30.476562 39.089844 30.921875 38.609375 31.367188 38.121094 C 31.582031 37.886719 31.824219 37.628906 32.082031 37.253906 C 32.335938 36.890625 32.601562 36.367188 32.691406 35.785156 C 32.800781 35.125 32.71875 34.460938 32.511719 33.957031"/></g></g></svg>