<?xml version="1.0" encoding="UTF-8" standalone="no"?><svg xmlns="http://www.w3.org/2000/svg" xmlns:xlink="http://www.w3.org/1999/xlink" contentScriptType="text/ecmascript" fill="#000000" width="469.8" zoomAndPan="magnify" contentStyleType="text/css" viewBox="-0.2 -0.0 469.8 501.3" height="501.3" preserveAspectRatio="xMidYMid meet" version="1"><linearGradient x1="-12.156" gradientTransform="matrix(1 0 0 -1 0 501.934)" y1="344.017" x2="426.809" gradientUnits="userSpaceOnUse" y2="20.742" xlink:type="simple" xlink:actuate="onLoad" id="a" xlink:show="other"><stop stop-color="#ffd982" offset="0"/><stop stop-color="#cda23d" offset="1"/></linearGradient><path fill="url(#a)" d="M148.651,208.387c2.232,1.042,2.084,2.03,1.451,4.125c-1.266,4.152-3.661,7.666-6.209,11.103 c-1.702,2.297-3.301,4.681-5.074,6.924c-0.796,0.895-1.008,2.168-0.546,3.274c1.65,4.857,2.822,9.864,3.497,14.949 c0.666,4.485,0.982,9.024,1.413,13.542c0.96,10.039,0.966,20.111,0.824,30.177c-0.078,7.189-0.737,14.359-1.97,21.442 c-0.447,2.515-0.507,5.107-0.977,7.638c-0.747,3.956-1.637,7.895-2.575,11.812c-1.507,6.199-3.595,12.242-6.236,18.049 c-4.207,9.275-9.046,18.245-16.046,25.834c-2.281,2.482-4.25,5.26-6.607,7.638c-5.412,5.511-11.223,10.519-18.55,13.427 c-0.666,0.262-1.326,0.546-1.97,0.851c-1.73,0.851-2.019,1.26-1.446,3.006c1.637,4.954,3.208,9.946,6.056,14.382 c2.613,4.081,5.5,7.949,9.128,11.223c2.182,1.959,4.147,4.158,6.394,6.002c6.002,4.965,12.849,8.408,20.542,9.515 c7.488,1.15,15.142-0.36,21.633-4.267c0.194-0.132,0.376-0.28,0.546-0.442c-0.311-4.949,0.104-15.135,0.104-15.135 c0.761-0.621,1.881-0.509,2.503,0.252c0.197,0.242,0.328,0.531,0.378,0.839c0.447,2.864,1.173,5.882,1.861,9.041 c0.106,0.321,0.234,0.634,0.382,0.938c0.803-0.736,1.561-1.519,2.27-2.346c6.222-8.296,11.067-17.541,14.349-27.378 c2.629-7.79,4.523-15.809,5.658-23.952c0.595-4.272,0.895-8.593,1.195-12.904c0.218-3.077,0.224-6.165,0.3-9.248 c0.126-4.698,0.158-9.401,0.371-14.098c0.115-2.553,0.513-5.096,0.802-7.638c0.289-2.543,0.66-5.085,0.884-7.638 c0.726-8.875,3.077-17.541,6.935-25.567c2.854-5.893,6.056-11.616,10.874-16.199c4.567-4.365,9.243-8.577,13.88-12.849 c1.211-1.091,3.355-2.428,4.07-3.819c-3.192-0.48-6.755,0-10.006-0.109c-3.511-0.101-7.013-0.412-10.486-0.933 c-6.384-1.042-13.558-2.537-18.66-6.793c-2.422-2.019-4.223-4.807-4.425-8.015c-0.338-5.38,0.267-11.032,0.731-16.368 c0.355-4.114,0.393-8.266,2.995-11.67c5.603-6.944,12.779-12.454,20.935-16.073c6.107-2.731,12.614-4.463,19.271-5.129 c9.821-0.982,18.851,1.135,26.402,7.933c2.87,2.581,4.594,5.783,5.745,9.455c1.297,4.124,2.307,8.334,3.023,12.598 c0.135,0.573,0.305,1.138,0.507,1.691c0.371,0.027,0.404,1.55,0.606,1.708c1.217,0.944,3.677-1.708,5.156-2.777 c4.981-3.634,10.077-7.093,14.982-10.841c3.988-3.028,7.704-6.384,9.821-11.119c0.055-0.109,0.229-0.169,0.344-0.256 c1.85,0.606,2.368,1.244,2.09,2.914c-1.162,6.864-2.182,13.766-3.677,20.547c-0.513,2.302-2.221,4.436-3.721,6.389 c-2.324,3.028-5.309,5.456-8.37,7.715c-4.065,3.023-8.151,6.002-12.292,8.932c-1.637,1.168-2.755,2.379-1.959,4.561 c0.191,0.546,0.033,1.168,0.049,1.757c0.093,4.239,0.3,8.484,0.251,12.729c-0.06,4.987-0.306,9.968-0.546,14.955 c-0.12,2.559-0.311,5.123-0.649,7.666c-0.199,1.231-0.583,2.425-1.14,3.541c-0.633,1.348-1.637,1.73-3.104,1.517 c-0.917-0.131-1.582-0.6-1.637-1.5c-0.256-2.995-1.348-5.854-1.222-8.926c0.202-4.981,0.186-9.968,0.289-14.949 c0.071-3.601,0.191-7.197,0.284-10.797c0-0.649,0-1.299,0-2.084c-1.948,0.131-3.11,1.359-4.239,2.384 c-6.547,5.974-13.051,12.058-19.593,18.07c-3.999,3.677-8.08,7.257-12.074,10.912c-5.587,5.151-11.316,10.328-15.762,16.532 c-4.227,5.986-7.346,12.681-9.21,19.767c-2.248,8.348-2.144,16.766-2.362,25.327c-0.149,5.689-0.378,11.374-0.687,17.056 c-0.158,2.897-0.262,5.811-0.546,8.697c-0.24,2.466-0.944,5.058-0.944,7.529c-0.469,3.274-0.758,6.547-1.249,9.821 c-1.509,10.387-4.14,20.581-7.846,30.401c-2.225,5.666-4.941,11.127-8.119,16.319c-0.486,0.807-0.878,1.675-1.331,2.548 c4.834,6.002,10.312,10.912,17.563,13.689c3.475,1.32,6.956,1.053,10.437,0.546c5.609-0.78,9.979-3.585,13.787-7.9 c5.243-5.936,7.955-13.013,10.29-20.28c3.012-9.363,5.587-18.872,8.462-28.284c1.975-6.454,3.743-13.002,6.744-19.096 c8.664-17.568,22.752-30.521,36.397-44.15c2.335-2.335,4.643-4.698,6.88-7.126c1.511-1.637,5.041-4.19,5.025-6.607 c-0.033-5.03,0-10.066,0.06-15.097c0-1.637,0.087-3.334,0.213-4.992c0.251-3.334,0.546-6.662,0.868-9.985 c0.191-1.828,0.295-1.708,2.106-2.117c2.089-0.394,4.131-1.003,6.094-1.817c3.221-1.405,6.323-3.069,9.275-4.976 c3.666-2.477,7.169-5.232,10.001-8.73c0.919-1.033,1.989-1.92,3.175-2.63c1.233-0.807,2.27-0.333,3.039,1.042 c1.773,3.186,2.133,6.684,2.264,10.214c0.169,4.654-0.949,9.166-1.73,13.706c-0.464,2.673-1.02,5.331-1.637,7.971 c-1.222,5.249-3.819,9.854-6.945,14.186c-12.276,16.968-27.073,32.191-41.389,47.418c-7.764,8.271-15.997,16.319-22.25,25.78 c-5.806,8.872-10.05,18.673-12.549,28.977c-1.675,6.7-3.819,13.269-5.636,19.925c-1.75,6.746-3.896,13.383-6.427,19.876 c-2.613,6.471-6.1,12.947-11.889,16.843c-15.424,10.366-33.064-2.854-43.01-14.54c-0.786-0.922-8.62-11.949-7.988-12.238 c-1.037,0.469-2.035,0.873-2.984,1.359c-4.37,2.296-9.222,3.522-14.158,3.579c-3.688,0-7.36,0-10.912-1.091 c-1.26-0.393-2.444-1.091-3.726-1.326c-5.058-0.982-9.035-4.076-13.198-6.744c-1.822-1.173-3.301-2.897-4.872-4.43 c-2.417-2.357-4.856-4.692-7.147-7.158c-3.663-3.922-6.793-8.31-9.308-13.051c-2.195-3.992-4.141-8.115-5.827-12.347 c-1.495-3.961-2.417-8.184-3.421-12.287c-0.638-2.619-0.971-5.309-1.484-8.239c-6.384,0.398-12.292,1.375-18.725,0.251 c-6.815-1.195-13.902-3.917-19.478-8.059c-19.854-14.731-28.371-39.12-25.163-63.164c1.637-12.494,3.765-26.189,9.428-37.592 c11.501-23.139,33.331-35.268,55.913-45.569c0.366-0.164,3.552-1.348,3.552-1.588c0-1.222,0.044-2.319,0-3.41 c-1.348-29.463-1.484-59.001-1.277-88.508c0-1.064-1.189-9.237,0.322-9.237c-9.073,7.038-18.223,12.696-29.239,16.444 c-13.313,4.523-27.198,6.002-41.089,7.469c-1.708,0.186-1.746,0.136-3.585-1.299c1.424-1.451,2.826-2.783,4.878-3.355 c4.528-1.255,9.008-2.695,13.542-3.928c8.293-2.248,15.981-5.816,23.335-10.219c15.031-9.002,30.008-19.32,40.135-33.893 c4.998-7.196,8.844-15.113,12.669-22.992c2.957-6.089,5.958-12.309,7.273-18.998c0.644-3.274,0.496-6.547,0.889-9.821 c0.442-3.71,1.304-7.355,1.795-11.059c0.382-2.897,0.737-5.8,1.129-8.697c0.09-0.356,0.216-0.701,0.376-1.031 c1.506,0,2.586,0.775,3.579,1.637c0.358,0.35,0.567,0.825,0.584,1.326c0.055,9.635,2.182,19.396,3.083,28.999 c1.015,11.07,1.882,22.304,1.882,33.429c0.076,4.512-1.157,8.844-2.275,13.171c-0.152,0.492-0.36,0.964-0.622,1.408 c-0.087,0.18-0.3,0.295-0.709,0.666c-0.393-0.583-0.707-1.216-0.933-1.882c-0.546-2.881-1.053-5.772-1.446-8.675 c-0.546-4.059-1.004-8.129-1.462-12.205c-0.502-4.436-0.988-8.871-1.424-13.318c-0.251-2.559-0.387-5.129-0.573-7.693l-0.469-0.038 c-0.451,1.859-0.908,3.723-1.369,5.592c-1.091,4.419-2.002,8.882-3.301,13.236c-1.063,3.437-2.339,6.804-3.819,10.083 c-3.868,8.773-8.615,17.088-13.64,25.229c-1.072,1.702-2.283,3.312-3.623,4.812c-0.797,0.917-0.922,1.5-0.224,2.537 c4.709,7.011,9.461,13.995,13.962,21.137c4.274,6.765,8.386,13.631,12.336,20.596c5.069,8.964,9.275,18.354,13.455,27.771 c1.599,3.623,3.006,7.333,4.496,10.994c2.646-0.758,9.968-7.999,12.985-12.8L148.651,208.387z M87.161,359.208 c-0.589,4.79-1.413,9.521-1.118,14.333c0.195,0.041,0.396,0.054,0.595,0.038c8.075-3.055,15.321-7.437,21.388-13.64 c5.034-5.145,9.727-10.613,14.049-16.368c3.907-5.183,6.547-10.874,8.877-16.914c1.251-3.207,2.306-6.486,3.159-9.821 c0.818-3.274,1.118-6.596,1.768-9.865c1.375-6.956,1.664-14.371,1.571-21.448c-0.064-6.973-0.844-13.92-2.33-20.733 c-1.451-6.547-3.721-12.86-6.056-19.123c-0.344-0.922-0.824-1.795-1.206-2.619c-2.69,1.811-5.085,3.634-7.677,5.118 c-3.874,2.221-23.068,10.797-26.189,11.894c-1.025,0.262-1.715,1.22-1.637,2.275c-0.224,5.718-0.497,11.458-0.851,17.143 c-0.147,2.352-0.431,3.606-0.704,5.953c-0.094,0.801-0.497,1.533-1.124,2.041l-0.938,0.764c-0.303,0.248-0.75,0.204-0.998-0.1 c-0.075-0.091-0.125-0.199-0.148-0.315c-1.539-8.217-0.797-15.446-1.419-24.083c-8.608,3.924-16.955,8.398-24.989,13.395 c-7.638,4.823-15.075,9.859-20.886,16.865c-4.986,6.003-9.141,12.65-12.352,19.762c-3.088,6.995-4.365,14.589-2.897,22.146 c1.73,8.937,5.494,17.039,10.366,24.634c2.755,4.299,6.547,7.458,10.546,10.514c4.093,3.132,8.924,5.156,14.027,5.876 c8.184,1.239,19.975-0.857,20.056-1.473c0.622-4.512,1.555-9.046,2.472-13.329c0.546-2.521,1.61-3.497,3.339-4.283 C85.857,357.85,87.385,357.337,87.161,359.208z M91.248,176.197c0.546,0.758-0.333,3.334-0.415,4.212 c-0.207,2.292-0.147,4.632-0.186,6.94c-0.08,5.092-0.118,10.185-0.115,15.277c0,11.179,0.72,22.37,0.72,33.538 c0,0.884,0.758,7.917,0.496,8.064c10.47-4.447,20.946-8.037,31.007-13.154C114.032,211.737,103.949,193.427,91.248,176.197z M242.827,241.26c-0.475-0.715-0.742-1.146-1.058-1.571c-0.176-0.234-0.373-0.451-0.589-0.649 c-4.377-4.033-9.961-6.512-15.888-7.055c-4.453-0.431-8.944-0.229-13.34,0.6c-6.728,1.204-13.185,3.606-19.063,7.093 c-0.922,0.546-1.762,1.233-2.777,1.953c0.311,0.213,0.642,0.395,0.988,0.546c6.261,1.84,12.746,2.805,19.271,2.87 c5.052,0.06,10.11-0.316,15.168-0.491C231.364,244.359,236.929,242.788,242.827,241.26z"/><linearGradient x1="-2.47" gradientTransform="matrix(1 0 0 -1 0 501.934)" y1="357.168" x2="436.494" gradientUnits="userSpaceOnUse" y2="33.893" xlink:type="simple" xlink:actuate="onLoad" id="b" xlink:show="other"><stop stop-color="#ffd982" offset="0"/><stop stop-color="#cda23d" offset="1"/></linearGradient><path fill="url(#b)" d="M253.996,478.291 c9.472-3.977,19.391-7.993,28.017-13.64c8.032-5.242,15.653-11.09,22.795-17.492c12.674-11.365,24.989-24.727,33.282-39.703 c2.946-5.325,6.269-10.443,8.511-16.166c3.497-8.937,6.935-17.89,9.532-27.138c0.337-1.352,0.545-2.733,0.622-4.125 c0.889-10.017,0.349-19.925-2.232-29.692c-2.024-7.671-4.016-15.342-6.629-22.839c-2.11-6.033-4.559-11.942-7.333-17.699 c-2.259-4.709-4.496-9.428-6.891-14.071c-6.705-12.996-13.689-25.845-21.622-38.149c-0.398-0.622-0.829-1.217-1.266-1.806 c-0.071-0.093-0.256-0.104-0.546-0.207c-0.107,0.397-0.182,0.802-0.224,1.211c-0.093,4.561-0.246,9.117-0.235,13.673 c0,8.457,0.191,16.914,0.202,25.365c0,2.117-0.338,4.239-0.507,6.356c-0.147,1.86-1.468,2.815-2.897,3.596 c-1.833,1.009-3.999-1.189-3.819-3.143c0.726-8.44,0.207-16.886,0.398-25.321c0.393-17.459,0.638-34.875,1.091-52.301 c0.055-1.833,0.928-3.312,1.877-4.763c0.337-0.595,1.092-0.805,1.688-0.469c0.012,0.007,0.024,0.014,0.036,0.021 c1.615,0.739,2.962,1.958,3.857,3.492c2.919,4.67,5.882,9.313,8.681,14.049c4.228,7.147,8.561,14.24,12.434,21.573 c5.249,9.935,10.225,20.018,15.091,30.15c9.024,18.785,14.409,39.633,16.695,60.316c0.832,7.54,1.225,15.122,1.178,22.708 c-0.049,7.431-1.091,14.671-2.144,22.015c-2.892,20.487-11.07,39.376-20.471,57.621c-0.835,1.637-1.91,3.132-2.853,4.709 c-0.25,0.485-0.473,0.984-0.666,1.495c0.315,0.069,0.639,0.091,0.96,0.065c5.811-1.593,11.752-2.832,17.219-5.412 c7.093-3.35,14.126-6.896,21.098-10.514c9.042-4.773,17.649-10.327,25.725-16.597c3.432-2.619,6.64-5.549,9.875-8.419 c4.594-4.076,7.999-9.139,11.398-14.186c1.479-2.182,3.012-4.338,4.365-6.58c1.024-1.681,1.95-3.421,2.772-5.211 c1.413-3.039,2.728-6.116,4.048-9.21c0.258-0.833,0.467-1.68,0.627-2.537c0.447-1.528,1.031-3.023,1.413-4.561 c0.922-3.759,1.822-7.513,1.544-11.458c-0.671-9.646-2.084-19.096-6.629-27.826c-3.508-6.727-8.566-11.971-15.495-15.086 c-4.49-2.024-9.008-1.915-13.313,1.135c-3.409,2.449-6.381,5.456-8.79,8.893c-1.844,2.575-1.79,5.751-1.222,8.888 c0.835,4.589,3.656,7.939,6.673,11.179c3.274,3.503,6.629,6.88,9.821,10.443c3.192,3.563,5.8,7.758,8.233,11.949 c0.638,1.091,0.742,2.515,1.091,3.819c0.647,2.856,1.029,5.765,1.14,8.691c0.24,3.623-0.415,7.049-1.309,10.497 c-0.546,2.128-0.862,4.316-1.446,6.433c-0.325,1.197-0.848,2.332-1.55,3.355c-0.922,1.299-2.346,1.009-2.793-0.546 c-0.275-1.138-0.474-2.294-0.595-3.459c-0.546-3.716-2.242-6.962-4.207-10.083c-2.935-4.665-6.471-8.877-10.105-12.996 c-1.5-1.697-3.274-3.143-4.91-4.714c-3.379-3.209-6.028-7.108-7.769-11.43c-0.411-1.099-0.743-2.226-0.993-3.372 c-1.041-4.285-1.528-8.686-1.451-13.094c0.044-3.039,0.851-6.094,1.544-9.09c0.895-3.857,1.91-7.693,3.072-11.458 c1.516-4.747,3.455-9.349,5.794-13.749c2.433-4.725,5.718-8.697,9.423-12.385c2.166-2.219,4.802-3.923,7.715-4.987 c2.51-0.89,5.234-0.98,7.797-0.256c3.538,1.038,6.852,2.725,9.772,4.976c4.201,3.132,7.96,6.711,10.71,11.245 c3.53,5.865,5.974,12.32,7.213,19.052c1.473,7.764,1.697,15.626,1.391,23.461c-0.16,6.455-0.745,12.893-1.751,19.271 c-0.813,4.763-1.533,9.581-2.832,14.218c-1.299,4.638-3.137,8.986-4.91,13.389c-1.462,3.596-3.104,7.126-4.867,10.585 c-1.762,3.459-3.552,7.055-5.783,10.274c-3.274,4.692-6.002,9.772-10.17,13.793c-10.841,10.443-20.809,19.096-35.65,23.281 c-10.683,3.012-21.862,3.819-32.883,4.463c-3.366,0.191-6.727,0.442-10.094,0.666l-4.256,0.267c-0.9,1.342-1.888,2.963-3.017,4.479 c-1.533,2.062-3.11,4.092-4.779,6.04c-3.11,3.617-6.062,7.415-9.504,10.694c-14.022,13.508-31.579,22.776-50.643,26.734 c-7.57,1.555-15.243,2.558-22.959,3.001c-7.022,0.442-15.108,1.495-21.971-0.147c-0.971-0.235-1.97-0.376-2.941-0.617 c-0.52-0.041-0.908-0.495-0.867-1.015c0.014-0.178,0.078-0.348,0.185-0.491c0.48-0.862,0.846-1.784,2.122-2.002 c1.708-0.284,3.115-1.277,4.769-1.637c2.062-0.442,4.103-0.807,6.133-1.408c3.914-1.24,7.759-2.69,11.518-4.343 C247.547,480.965,250.793,479.639,253.996,478.291z"/><linearGradient x1="85.047" gradientTransform="matrix(1 0 0 -1 0 501.934)" y1="476.002" x2="524.011" gradientUnits="userSpaceOnUse" y2="152.727" xlink:type="simple" xlink:actuate="onLoad" id="c" xlink:show="other"><stop stop-color="#ffd982" offset="0"/><stop stop-color="#cda23d" offset="1"/></linearGradient><path fill="url(#c)" d="M184.813,45.612 c0.164,4.736,0.393,8.915,0.431,13.094c0.027,2.859-0.196,5.712-0.327,8.571c-0.021,0.371-0.091,0.738-0.207,1.091 c-0.246,0.786-0.502,1.637-1.539,1.577c-0.85-0.095-1.511-0.784-1.571-1.637c-1.893-11.458-2.532-23.063-3.094-34.651 c-0.255-3.452-0.237-6.918,0.055-10.366c0.218-1.931,0.306-7.164,3.317-6.067c1.429,0.546,2.466,1.582,3.683,2.406 c6.167,4.271,11.666,9.432,16.319,15.315c3.304,4.036,6.227,8.371,8.73,12.947c1.32,2.444,2.27,5.09,3.394,7.638 c0.175,0.393,0.404,0.758,0.791,1.484c0.316-0.727,0.595-1.47,0.835-2.226c1.473-5.876,4.512-10.988,7.808-15.948 c4.818-7.246,10.585-13.711,16.712-19.854c0.982-0.982,2.128-1.806,3.137-2.766c0.98-0.942,2.412-1.242,3.688-0.775 c2.542,0.731,4.463,2.242,5.32,4.834c1.822,5.456,2.226,10.967,2.428,16.843c0.142,4.087-0.387,16.81-0.84,19.538 c-0.878,5.271-1.828,10.541-3.072,15.73c-2.361,10.114-6.515,19.723-12.265,28.371c-3.852,5.762-8.184,11.092-12.587,16.412 c-1.009,1.222-1.239,2.39-1.091,4.01c0.338,3.77,0.758,7.578,0.251,11.409c-1.326,0.202-1.637-0.573-1.817-1.5 c-0.586-2.666-1.164-5.321-1.735-7.966c-0.076-0.344-0.18-0.677-0.371-1.391c-1.675,1.239-3.225,2.27-4.605,3.492 c-0.333,0.295-0.218,1.239-0.12,1.85c0.6,3.737,1.375,7.093,1.331,10.912c-0.047,3.979-0.229,7.953-0.546,11.921 c-0.519,6.187-1.386,12.341-2.597,18.43c-1.253,6.02-3.188,11.877-5.767,17.459c-4.223,9.45-11.125,16.466-20.471,21.022 c-2.848,1.386-5.685,2.728-8.85,3.274c-7.486,1.369-14.78,0.491-21.862-1.991c-4.365-1.539-8.304-4.087-11.894-7.055 c-8.32-6.847-13.045-15.981-16.144-26.042c-1.676-5.404-2.459-11.045-2.319-16.701c0.096-3.958,0.492-7.903,1.184-11.801 c1.042-5.762,2.297-11.507,3.819-17.165c2.302-8.691,5.352-17.028,7.196-25.845c0.355-1.686,0.682-3.372,1.015-5.058l0.726-3.705 l2.182-11.158c0.382-1.953,0.349-8.67,3.59-7.377c2.815,1.124,5.816,1.353,8.768,1.784c3.623,0.546,7.273,0.851,10.912,1.348 c2.952,0.404,4.632,2.412,4.261,5.374c-0.758,5.969-1.637,11.938-3.716,17.618c-1.49,4.054-1.446,4.474-6.274,3.312 c-4.91-1.189-9.935-1.724-14.928-2.401c-0.9-0.12-1.369,0.371-1.599,1.168c-0.327,1.128-0.646,2.257-0.955,3.388 c-1.735,6.302-3.596,12.549-5.167,18.911c-1.792,7.436-2.516,15.09-2.15,22.73c0.224,5.702,2.264,10.912,4.43,16.041 c3.699,8.801,10.421,14.48,19.32,17.459c5.456,1.822,11.239,1.953,17.001,1.206c3.639-0.513,7.158-1.668,10.394-3.41 c2.935-1.522,5.871-3.006,8.495-5.08c7.611-6.002,12.62-13.536,14.497-23.177c0.704-3.639-0.267-6.776-1.517-9.985 c-1.991-5.081-4.978-9.713-8.784-13.624c-1.143-1.14-2.363-2.201-3.65-3.175c-2.068-1.637-4.218-3.181-6.291-4.818 c-1.38-1.091-2.182-2.341-1.986-4.338c0.267-2.766-0.065-5.582,0.104-8.364c0.246-4.163,0.715-8.315,1.091-12.478 c0.191-2.237,1.217-2.472,2.941-1.342c3.175,2.068,5.745,5.074,9.417,6.394c2.498,0.813,5.152,1.026,7.748,0.622 c0.753-0.098,7.006-0.96,7.06-1.986c0.278-5.418-1.26-9.384-2.832-14.873c-2.135-7.528-5.587-14.618-10.197-20.94 c-3.688-5.137-8.035-9.768-12.931-13.771c-1.14-0.917-2.281-1.844-3.448-2.728C186.494,46.627,185.866,46.283,184.813,45.612z M221.369,94.662c3.286-2.819,6.256-5.986,8.861-9.444c3.421-4.392,6.656-8.942,9.75-13.575c4.91-7.355,8.184-15.375,9.341-24.214 c0.267-2.041-0.436-3.776-1.38-5.456c-2.084-3.65-10.143,6.629-11.267,7.911c-5.92,6.755-11.43,14.055-15.277,22.217 c-3.394,7.289-2.095,15.162-0.011,22.561H221.369z"/><linearGradient x1="94.011" gradientTransform="matrix(1 0 0 -1 0 501.934)" y1="488.178" x2="532.976" gradientUnits="userSpaceOnUse" y2="164.903" xlink:type="simple" xlink:actuate="onLoad" id="d" xlink:show="other"><stop stop-color="#ffd982" offset="0"/><stop stop-color="#cda23d" offset="1"/></linearGradient><path fill="url(#d)" d="M299.559,98.176 c-0.835,1.599-1.588,3.154-2.45,4.654c-0.609,1.003-1.27,1.974-1.981,2.908c-3.819,5.238-13.094,4.512-17.088,1.484 c-4.758-3.579-7.093-8.211-6.324-14.306c0.3-2.319,0.125-4.698,0.344-7.038c0.442-4.736,0.928-9.472,1.528-14.186 c0.655-5.074,3.557-8.626,8.031-10.879c1.119-0.521,2.353-0.749,3.585-0.66c9.701,0.671,16.123,6.171,20.837,14.224 c3.017,5.161,4.174,10.737,4.31,16.63c0.055,2.564,0.546,5.123,0.464,7.671c-0.12,4.25-0.644,8.484-0.78,12.729 c-0.224,7.246-1.942,14.229-3.59,21.213c-1.34,5.864-3.154,11.61-5.423,17.181c-1.719,4.125-3.339,8.31-5.303,12.32 c-1.584,3.064-3.337,6.039-5.249,8.91c-2.563,4.024-5.542,7.767-8.888,11.168c-2.793,2.859-6.083,5.009-9.532,7.033 c-5.456,3.208-11.458,4.943-17.514,6.274c-4.91,1.091-9.985,1.517-14.988,2.182c-4.278,0.584-8.555,1.397-12.854,1.577 c-4.676,0.191-9.33,1.348-14.038,0.546c-0.262-0.044-0.546-0.142-0.955-0.267c0.327-0.491,0.48-0.966,0.797-1.151 c1.97-1.124,3.89-2.384,6.002-3.225c4.839-1.942,9.821-3.536,14.639-5.527c3.104-1.288,6.002-3.044,9.013-4.572 c3.41-1.73,6.946-3.246,10.208-5.21c4.01-2.422,7.84-5.167,11.681-7.862c3.061-2.15,6.127-4.321,9.013-6.7 c5.278-4.355,9.89-9.46,13.689-15.151c4.43-6.602,8.326-13.498,11.114-20.978c2.035-5.456,3.35-11.087,4.741-16.717 c1.249-5.063-0.415-9.39-2.466-13.749C300.023,98.53,299.81,98.416,299.559,98.176z"/><linearGradient x1="129.823" gradientTransform="matrix(1 0 0 -1 0 501.934)" y1="536.807" x2="568.787" gradientUnits="userSpaceOnUse" y2="213.532" xlink:type="simple" xlink:actuate="onLoad" id="e" xlink:show="other"><stop stop-color="#ffd982" offset="0"/><stop stop-color="#cda23d" offset="1"/></linearGradient><path fill="url(#e)" d="M385.011,226.501 c-4.65-0.08-9.142-1.699-12.773-4.605c-4.867-3.721-7.813-8.773-10.077-14.186c-1.882-4.512-3.104-9.313-4.518-14.011 c-1.637-5.352-2.182-10.912-2.946-16.412c-0.671-5.003-1.566-9.974-2.275-14.971c-1.009-7.093-1.893-14.229-2.903-21.333 c-0.704-4.91-1.544-9.821-2.308-14.759c-1.239-7.96-2.357-15.937-3.743-23.87c-1.186-6.346-2.876-12.587-5.052-18.665 c-1.511-4.365-2.984-8.757-4.687-13.051c-1.331-3.345-2.935-6.624-5.587-9.155c-1.146-1.091-2.046-2.635-4.103-2.532 c-1.2,0.06-2.641-2.15-2.482-3.41c0.311-2.466,0.747-4.91,0.988-7.398c0.426-4.365,0.677-8.768,1.135-13.138 c0.366-3.475,0.42-4.447,4.201-2.182c3.879,2.324,6.498,5.909,8.555,9.87c3.028,5.822,5.134,12.003,7.093,18.261 c1.222,3.917,2.275,7.889,3.497,11.812c1.359,4.365,1.986,8.866,2.684,13.356c1.284,8.169,2.557,16.341,3.819,24.514 c0.906,5.86,1.762,11.73,2.684,17.585c0.742,4.703,1.55,9.39,2.341,14.082c0.824,4.91,1.915,9.794,2.439,14.731 c0.797,7.497,3.023,14.639,5.02,21.824c1.636,5.888,4.436,11.389,8.233,16.177c3.034,3.846,7.295,5.396,12.063,5.32 c4.059-0.065,7.829-1.293,10.912-4.092c1.161-1.008,2.153-2.194,2.941-3.514c1.765-3.352,3.149-6.891,4.125-10.552 c0.274-1.143,0.39-2.318,0.344-3.492c0-3.563,1.091-6.924,1.921-10.328c0.431-1.74,1.271-1.997,2.695-0.949 c0.464,0.338,1.048,0.769,1.168,1.26c0.48,1.599,0.782,3.245,0.9,4.91c0.207,8.331-1.664,16.439-3.034,24.552 c-0.868,5.14-2.99,9.995-5.309,14.671c-1.25,2.489-2.736,4.853-4.436,7.06C395.034,224.483,390.713,226.474,385.011,226.501z"/><g id="change1_1"><path fill="#edd982" d="M62.56,206.969c-3.017,8.32-7.775,17.105-13.76,23.674c-4.403,4.823-8.648,9.821-14.071,13.607 c-2.102,1.481-4.344,2.751-6.695,3.792c-5.8,2.499-11.703,4.758-17.541,7.175c-1.762,0.731-3.437,1.67-5.161,2.488 c-0.67,0.329-1.356,0.622-2.057,0.878c-0.911,0.322-1.55-0.18-2.128-0.797c-0.578-0.617-0.387-1.348,0-2.019 c1.329-2.215,3.122-4.118,5.254-5.576c7.464-5.347,14.933-10.685,22.408-16.013c1.484-1.091,2.897-2.237,4.365-3.355l-0.136-0.491 c-9.766,0.513-19.44,0-28.748-2.924c-0.581,0.88-1.24,1.705-1.97,2.466c-0.486,0.394-1.118,0.561-1.735,0.458 c-0.753-0.202-0.595-0.922-0.513-1.637c0.469-3.999,2.117-7.638,3.475-11.343c1.691-4.621,3.71-9.117,5.549-13.684 c0.371-0.922,0.764-1.746,2.013-2.182c0.546-0.196,3.759,1.637,4.523,1.85c1.647,0.482,3.324,0.856,5.02,1.118 c3.922,0.67,7.885,1.071,11.861,1.2c7.967,0.224,15.924-0.715,23.619-2.788C58.943,202.113,64.197,202.386,62.56,206.969z M468.794,236.901c-0.55-0.771-1.219-1.45-1.981-2.013c-4.55-2.979-9.139-5.892-13.722-8.817l-4.719-2.99 c-1.099-0.69-2.548-0.383-3.274,0.693c-0.325,0.478-0.621,0.975-0.884,1.49c-2.641,5.265-5.211,10.552-7.824,15.822 c-0.371,0.764-0.84,1.457-1.266,2.182c-0.96-0.769-1.615-1.49-2.428-1.91c-6.771-3.486-13.602-6.918-20.411-10.366 c-1.086,0.158-1.489,1.004-1.948,1.882c-1.56,3.066-3.268,6.078-4.834,9.161c-1.651,3.281-3.255,6.585-4.812,9.914 c-0.791,1.68-0.393,2.935,1.135,3.721c3.197,1.648,6.449,3.214,9.652,4.85c3.19,1.633,6.362,3.308,9.515,5.025 c1.069,0.584,2.073,0.742,3.11,0.087c0.645-0.351,1.227-0.807,1.724-1.348c1.613-1.899,3.113-3.892,4.49-5.969 c2.384-3.83,5.101-7.535,5.865-12.402c0.922,0.491,1.784,0.867,2.553,1.38c5.285,3.488,10.55,6.975,15.795,10.459 c1.74,1.178,2.488,1.091,3.819-0.546c0.163-0.204,0.314-0.417,0.453-0.638c2.619-4.125,5.26-8.239,7.851-12.385 c0.818-1.282,1.511-2.69,2.297-4.01C469.634,239.169,469.569,237.835,468.794,236.901z M309.232,373.219 c-0.772-0.678-1.452-1.454-2.024-2.308c-1.708-2.515-4.114-3.917-7-4.627c-2.886-0.709-5.565-0.278-7.606,2.144 c-0.775,0.895-1.517,1.806-2.182,2.766c-2.167,2.986-3.624,6.427-4.261,10.061c-0.479,3.262-0.705,6.557-0.677,9.854 c-0.005,3.29,0.284,6.591,0.595,9.865c0.475,5.025,1.091,10.039,1.637,15.059c0.3,2.766,0.644,5.56-0.622,8.222 c-0.497,0.988-0.911,2.019-2.182,2.401c-1.686-1.735-2.352-4.032-3.323-6.143c-1.888-4.076-3.863-8.069-7.011-11.392 c-2.603-2.75-5.86-3.083-9.319-2.886c-0.363,0.052-0.708,0.192-1.004,0.409c-2.692,1.642-4.328,4.573-4.316,7.726 c-0.082,4.907,0.224,9.813,0.917,14.671c0.136,1.08,0.469,2.013,1.893,2.259c1.479-0.851,1.588-2.488,2.15-3.797 c1.68-3.716,5.161-4.458,8.184-1.637c0.756,0.696,1.398,1.506,1.904,2.401c1.364,2.493,2.69,5.036,3.879,7.638 c1.25,2.763,2.867,5.345,4.807,7.677c2.144,2.559,4.921,2.341,6.733-0.387c1.365-1.937,2.212-4.191,2.461-6.547 c0.407-4.241,0.504-8.506,0.289-12.762c-0.486-6.875-1.342-13.695-2.259-20.515c-0.846-6.274,0.382-11.916,4.365-16.914 c2.422-3.039,5.893-3.214,8.681-0.426c0.518,0.518,1.076,0.994,1.669,1.424c1.233,0.906,1.828,0.824,2.728-0.415 c0.338-0.482,0.589-1.019,0.742-1.588c0.633-2.477,1.309-4.954,1.79-7.464C311.285,376.216,310.649,374.362,309.232,373.219z M234.119,310.988c-2.232-2.908-5.363-4.01-8.828-4.288c-0.952-0.007-1.891,0.228-2.728,0.682c-1.806,0.873-2.755,2.586-3.743,4.223 c-1.828,3.017-2.09,6.405-2.122,9.788c-0.038,4.174,0.027,8.37,0.267,12.549c0.191,3.876,0.577,7.74,1.157,11.578 c0.747,4.698,1.899,9.324,2.761,14.011c0.36,1.964,0.889,4.043-0.851,6.105c-0.353-0.427-0.683-0.874-0.988-1.337 c-1.675-2.919-3.339-5.871-5.652-8.375c-2.548-2.755-5.451-4.938-9.15-5.838c-1.593-0.387-3.23-0.507-4.594,0.704 c-1.702,1.528-2.793,3.377-2.728,5.751c0.109,3.961,0.202,7.922,0.371,11.883c0.065,1.533,0.311,3.061,0.507,4.589 c0.235,1.844,0.971,2.979,1.91,2.799c1.5-0.284,1.424-1.691,1.724-2.783c0.213-0.775,0.185-1.62,0.447-2.368 c0.764-2.144,2.019-2.652,4.119-2.002c2.101,0.649,3.699,2.03,5.189,3.563c1.915,1.981,3.208,4.37,4.419,6.809 c0.894,2.029,2.326,3.774,4.141,5.047c2.09,1.369,3.306,1.266,4.605-0.813c0.751-1.255,1.343-2.598,1.762-3.999 c1.56-4.954,1.157-10.099,0.802-15.113c-0.546-7.606-1.784-15.147-3.699-22.528c-0.878-3.187-1.257-6.491-1.124-9.794 c0.023-2.002,0.774-3.928,2.111-5.418c0.574-0.651,1.365-1.07,2.226-1.178c1.751,0.022,3.503,0.338,4.785,1.817 c0.788,0.876,1.62,1.712,2.493,2.504c2.046,1.948,4.032,1.582,4.91-1.02c0.689-2.088,1.259-4.214,1.708-6.367 c0.35-1.689-0.097-3.446-1.211-4.763C237.453,315.265,235.756,313.138,234.119,310.988z M446.2,208.704 c0.382-0.6,0.977-1.097,1.408-1.691c5.391-7.382,7.202-15.762,6.847-24.743c-0.01-0.375-0.087-0.744-0.229-1.091 c-0.415-0.977-0.998-1.86-2.182-1.904s-1.642,0.797-1.975,1.74c-1.069,3.066-2.079,9.772-5.058,11.578 c-1.926,1.146-4.556,0.366-6.002-1.32c-1.446-1.686-1.882-4.027-1.828-6.247c0.118-2.847,0.483-5.678,1.091-8.462 c0.753-3.803,1.91-7.529,2.935-11.278c1.091-3.896,2.193-7.78,3.306-11.654c1.178-4.027,2.128-8.097,1.893-12.462 c0-0.382,0.038-0.9,0-1.369c-0.063-1.309-0.224-2.611-0.48-3.896c-0.214-0.592-0.709-1.039-1.32-1.189 c-0.633,0.069-1.197,0.428-1.528,0.971c-0.899,1.511-1.648,3.107-2.237,4.763c-1.206,3.765-2.264,7.584-3.312,11.403 c-2.417,8.833-4.845,17.672-6.673,26.647c-1.626,7.977-3.896,17.252-0.938,25.18C432.184,209.751,441.437,216.402,446.2,208.704z M415.603,123.099c2.712-2.809,4.835-6.131,6.247-9.772c1.364-3.514,1.855-7.371,2.695-11.087c0.317-1.157,0.011-2.396-0.807-3.274 c-0.633-0.698-1.026-1.653-2.221-1.506c-1.113,0.142-1.184,1.124-1.604,1.877c-1.102,2.019-2.008,4.201-3.497,5.838 c-3.609,4.06-7.632,7.732-12.003,10.956c-5.2,3.808-10.645,7.251-15.511,11.567c-3.945,3.475-7.448,7.573-9.275,12.549 c-1.975,5.374-2.532,12.091-3.034,17.77c-0.093,1.031-0.84,4.878-0.169,5.68c0.066,0.083,0.143,0.156,0.229,0.218 c1.413,1.004,6.367-12.745,7.284-14.207c3.639-5.794,9.395-9.412,15.015-13.024C405.008,132.814,410.595,128.255,415.603,123.099z M180.798,278.661c-5.594-2.743-11.185-5.5-16.772-8.271c-1.659-0.829-2.259-0.627-3.017,1.091 c-1.435,3.274-2.924,6.613-4.365,9.821c-1.44,3.208-2.963,6.384-4.321,9.63c-0.906,2.166-0.387,3.203,1.68,4.228 c5.456,2.695,10.923,5.38,16.341,8.151c0.916,0.52,2.063,0.392,2.843-0.316c0.698-0.533,1.292-1.189,1.751-1.937 c2.608-4.365,5.216-8.681,7.682-13.094c0.737-1.315,1.02-2.875,1.282-3.645C184.044,281.798,182.593,279.479,180.798,278.661z M270.593,121.566c0.183-0.965,0.256-1.948,0.218-2.93c-0.036-0.755-0.206-1.498-0.502-2.193c-0.524-1.217-1.697-2.352-2.581-0.671 c-0.271,0.601-0.497,1.221-0.677,1.855c-2.057,5.767-5.647,11.589-10.465,15.408c-5.369,4.278-11.261,7.491-15.822,12.778 c-3.312,3.836-5.794,8.359-7.802,12.931s-3.977,9.297-4.801,14.235c-0.115,0.671-0.273,1.462,0.513,1.637 c0.617,0.036,1.217-0.207,1.637-0.66c3.672-4.125,5.62-9.477,9.875-13.154c4.43-3.836,9.614-6.651,14.328-10.105 c3.159-2.319,5.489-5.467,7.96-8.484C267.319,136.297,269.382,128.959,270.593,121.566z M263.456,59.678 c0.537,0.093,1.086-0.075,1.479-0.453c0.745-0.809,1.416-1.681,2.008-2.608c1.588-2.373,3.104-4.796,4.703-7.164 c1.921-2.848,4.556-4.905,7.431-6.727c3.279-2.073,6.575-4.147,9.701-6.438c3.885-2.854,6.782-6.673,9.641-10.492 c4.752-6.324,6.253-13.771,7.344-21.824c-0.199-1.022-0.473-2.029-0.818-3.012c-0.253-0.513-0.739-0.871-1.304-0.96 c-0.415,0.038-0.9,0.644-1.206,1.091c-0.227,0.46-0.397,0.945-0.507,1.446c-2.164,6.289-6.044,11.847-11.201,16.046 c-2.873,2.278-5.866,4.401-8.964,6.362c-4.021,2.619-7.322,5.811-9.444,10.175c-2.288,4.681-4.587,9.357-6.896,14.027 c-1.419,2.87-1.915,5.985-2.461,9.084C262.883,58.701,263.129,59.531,263.456,59.678z M330.211,160.407 c1.904-4.043,4.818-11.114,4.212-16.401c-0.104-1.053-0.401-2.078-0.878-3.023c-0.627-1.2-1.73-1.086-2.335,0.125 c-2.019,4.032-3.104,7.977-5.958,11.627c-2.738,3.429-5.962,6.44-9.57,8.937c-3.83,2.701-8.042,4.998-11.163,8.495 c-4.774,5.358-7.709,13.395-10.617,19.893c-1.178,2.635-1.571,5.625-2.237,8.473c-0.064,0.475,0.112,0.952,0.469,1.271 c0.452,0.155,0.952,0.073,1.331-0.218c0.72-0.729,1.363-1.53,1.921-2.39c3.061-4.55,5.543-9.068,9.908-12.5 c3.841-3.006,8.184-5.287,12.063-8.244C322.867,172.214,327.276,166.71,330.211,160.407z M367.35,111.396 c1.069,1.314,2.545,2.235,4.196,2.619c2.706,0.507,4.938-1.446,6.487-3.432c2.728-3.486,4.605-7.475,6.433-11.458 c1.356-3.093,2.503-6.274,3.432-9.521c0.431-1.402,0.557-3.05-0.6-4.365c-0.802-0.906-1.484-0.933-2.101,0.104 c-0.602,1.003-1.068,2.082-1.386,3.208c-0.745,2.706-2.213,5.157-4.245,7.093c-3.399,3.301-5.554-1.795-6.154-4.523 c-0.758-3.552-0.447-7.295,0.333-10.814c1.571-7.038,4.119-13.831,6.127-20.733c0.401-1.473,0.615-2.991,0.638-4.518 c0.002-0.034,0.003-0.067,0.003-0.101c-0.002-0.904-0.736-1.635-1.64-1.634c-0.701,0.103-1.324,0.5-1.713,1.091 c-3.448,5.445-5.2,12.009-7.038,18.136c-1.942,6.482-3.574,13.056-4.954,19.68c-0.651,2.769-1.044,5.593-1.173,8.435 c-0.011,0.497-0.005,0.993,0.033,1.457C364.169,105.481,365.167,108.88,367.35,111.396z M383.494,261.289 c0.301-1.133,0.322-2.322,0.06-3.465c-0.242-0.739-0.794-1.336-1.511-1.637c-0.316-0.125-1.195,0.682-1.533,1.228 c-0.465,0.83-0.814,1.721-1.037,2.646c-0.751,2.706-2.221,5.157-4.256,7.093c-1.599,1.555-3.137,1.402-4.436-0.387 c-1.277-1.72-2.022-3.776-2.144-5.914c-0.219-2.931,0.035-5.879,0.753-8.73c1.075-4.037,2.057-8.102,3.224-12.118 c0.873-3.012,2.057-5.936,2.93-8.948c0.416-1.471,0.609-2.995,0.573-4.523c-0.011-0.617-0.802-1.391-1.43-1.708 c-0.889-0.447-1.522,0.333-1.921,1.048c-0.786,1.402-1.511,2.843-2.221,4.294c-2.766,5.691-4.31,11.785-5.811,17.89 c-0.387,1.571-0.66,3.175-1.173,4.703c-1.77,5.038-3.004,10.248-3.683,15.544c-0.125,1.189-0.175,2.33-0.289,3.917 c0.213,1.577,0.382,3.552,0.747,5.461c0.583,2.997,2.407,5.607,5.02,7.186c1.128,0.742,2.528,0.942,3.819,0.546 c1.866-0.518,3.203-1.729,4.365-3.197c2.75-3.497,4.621-7.491,6.476-11.458C381.378,267.681,382.539,264.517,383.494,261.289z M340.13,351.09c-0.366-0.082-1.091,0.622-1.386,1.129c-0.461,0.832-0.815,1.72-1.053,2.641c-0.753,2.774-2.265,5.283-4.365,7.246 c-1.56,1.446-3.088,1.326-4.288-0.371c-1.062-1.415-1.765-3.066-2.051-4.812c-0.445-3.2-0.26-6.457,0.546-9.586 c0.818-3.27,1.697-6.525,2.635-9.766c1.14-3.928,2.03-7.928,3.585-11.747c0.457-1.382,0.677-2.833,0.649-4.288 c0.021-0.934-0.658-1.737-1.582-1.871c-0.993-0.207-1.479,0.491-1.888,1.206c-0.546,1.015-1.162,2.013-1.637,3.104 c-1.773,4.005-3.557,7.944-4.501,12.309c-0.971,4.501-2.537,8.871-3.732,13.329c-0.889,3.317-1.686,6.667-2.362,10.034 c-0.469,2.357-0.687,4.763-1.015,7.153c0.344,2.155,0.595,4.267,0.998,6.334c0.611,2.963,2.499,5.118,4.976,6.711 c1.062,0.694,2.379,0.876,3.59,0.496c1.768-0.548,3.313-1.652,4.403-3.148c2.701-3.421,4.605-7.316,6.433-11.218 c1.422-3.208,2.628-6.507,3.612-9.875c0.275-1.208,0.253-2.464-0.065-3.661C341.369,351.777,340.814,351.278,340.13,351.09z M169.214,168.94c1.023-1.344,1.962-2.751,2.81-4.212c2.483-4.108,3.89-8.686,5.527-13.149c0.481-1.179,0.372-2.516-0.295-3.601 c-0.578-0.884-1.353-0.9-1.899,0c-0.46,0.75-0.814,1.559-1.053,2.406c-0.618,2.284-1.844,4.358-3.546,6.002 c-1.38,1.309-2.559,1.195-3.694-0.327c-1.11-1.572-1.728-3.439-1.773-5.363c-0.289-4.501,1.097-8.79,2.226-12.958 s2.564-8.255,3.819-12.391c0.184-0.712,0.257-1.448,0.218-2.182c-0.011-0.906-0.518-1.691-1.402-1.691 c-0.502-0.011-1.157,0.546-1.5,1.02c-0.558,0.871-1.049,1.783-1.468,2.728c-2.259,4.561-3.606,9.433-4.85,14.344 c-0.84,3.415-1.686,6.847-2.728,10.208c-0.852,3.074-1.401,6.225-1.637,9.406c-0.016,3.726,0.207,6.471,1.697,8.806 C162.46,172.361,166.066,172.929,169.214,168.94z M393.217,386.821c-0.366-0.082-1.037,0.431-1.299,0.851 c-0.397,0.701-0.699,1.451-0.9,2.232c-0.599,2.126-1.725,4.066-3.274,5.642c-1.599,1.577-2.826,1.43-4.125-0.442 c-1.547-2.298-2.098-5.124-1.528-7.835c0.922-4.954,2.281-9.821,3.579-14.731c0.731-2.755,1.757-5.456,2.521-8.184 c0.213-0.847,0.185-1.738-0.082-2.57c-0.398-1.195-1.62-1.315-2.406-0.338c-0.298,0.419-0.561,0.863-0.786,1.326 c-2.723,4.916-4.283,10.252-5.663,15.659c-0.906,3.546-1.751,7.131-2.843,10.639c-0.96,3.33-1.535,6.758-1.713,10.219 c0.087,1.408,0.093,2.439,0.202,3.432c0.393,3.023,1.506,5.658,4.147,7.448c1.173,0.807,2.433,1.233,3.726,0.546 c1.118-0.525,2.129-1.254,2.979-2.15c2.761-3.295,4.578-7.169,6.274-11.076c0.886-2.093,1.63-4.244,2.226-6.438 c0.228-0.995,0.247-2.026,0.055-3.028C394.161,387.468,393.754,387.02,393.217,386.821z M56.231,321.523 c-0.278-0.087-0.906,0.42-1.118,0.802c-0.418,0.774-0.749,1.592-0.988,2.439c-0.609,2.133-1.765,4.068-3.355,5.614 c-1.539,1.511-2.712,1.369-3.961-0.431c-1.029-1.367-1.579-3.035-1.566-4.747c0.004-2.341,0.207-4.677,0.606-6.984 c0.682-3.377,1.648-6.705,2.613-10.017c0.731-2.532,1.713-4.987,2.45-7.518c0.34-1.191,0.495-2.428,0.458-3.666 c-0.133-0.622-0.573-1.133-1.168-1.359c-0.447-0.104-1.228,0.376-1.539,0.829c-0.676,1.044-1.271,2.138-1.779,3.274 c-2.27,4.725-3.606,9.75-4.839,14.813c-0.747,3.066-1.528,6.138-2.499,9.139c-1.135,3.459-1.424,7.016-1.68,10.596 c-0.028,0.587-0.026,1.175,0.005,1.762c0.349,3.268,1.009,6.384,3.912,8.517c1.811,1.342,3.394,1.588,5.276,0.366 c0.871-0.538,1.616-1.258,2.182-2.111c1.833-2.995,3.694-5.996,5.227-9.155c1.181-2.604,2.171-5.29,2.963-8.037 c0.234-0.998,0.234-2.036,0-3.034C57.214,322.09,56.774,321.69,56.231,321.523z M172.706,342.857 c-2.406-2.455-3.825-4.889-7.42-5.811c-4.61-1.162-7.578,0.376-10.421,4.294c-2.182,3.066-3.649,6.582-4.294,10.29 c-1.451,7.982-0.758,16.723,0.115,24.852c0.469,4.365,1.238,8.73,1.637,13.094c0.267,2.903-0.426,5.642-2.804,7.786 c-0.355-0.306-0.655-0.447-0.775-0.682c-0.966-1.893-1.942-3.786-2.837-5.712c-1.92-4.147-3.934-8.217-7.207-11.523 c-4.076-4.108-11.332-3.776-13.564,1.964c-0.906,2.335-0.922,4.91-0.758,7.409c0.256,3.874,0.529,7.649,1.02,11.512 c0.109,0.857,0.66,1.462,1.419,1.402c0.608-0.155,1.127-0.548,1.44-1.091c0.417-0.857,0.781-1.739,1.091-2.641 c1.2-2.69,3.983-4.087,6.711-2.581c2.215,1.244,3.743,4.027,4.91,6.242c2.035,3.874,3.497,8.26,6.274,11.67 c1.359,1.67,3.312,1.604,5.041,0.791c1.233-0.581,2.305-1.456,3.121-2.548c2.248-3.066,2.248-7.469,2.248-11.108 c-0.033-4.506-0.317-9.007-0.851-13.482c-0.475-4.512-1.211-8.997-1.724-13.509c-0.682-6.083,0.546-11.681,4.485-16.543 c2.27-2.799,5.789-3.066,8.435-0.589c0.568,0.569,1.167,1.107,1.795,1.609c1.359,1.015,1.948,0.922,2.892-0.42 c0.252-0.36,0.437-0.763,0.546-1.189c0.764-2.984,3.154-7.977,1.588-10.912C174.238,344.479,173.527,343.612,172.706,342.857z M94.134,316.766c-2.149,0.456-4.325,0.773-6.515,0.949c-2.641,0.278-4.91-0.78-6.924-2.341c-1.244-0.96-1.222-2.259-0.393-3.552 c0.666-1.026,2.144-3.301,3.585-3.001c1.44,0.3,2.286-0.475,2.892-1.495c0.762-1.235,1.376-2.555,1.828-3.934 c0.791-2.586,1.408-5.227,2.019-7.862c0.207-0.917,0.589-2.172,0.175-2.783c-0.638-0.938-1.91-2.341-3.083-2.668 c-1.173-0.327-2.826,1.14-3.71,1.921c-2.182,1.91-3.699,4.501-5.336,6.82c-2.644,3.803-4.574,8.055-5.696,12.549 c-0.895,3.552-2.041,7.076-2.532,10.683c-0.577,3.449,0.495,6.969,2.897,9.51c2.084,2.273,4.831,3.831,7.851,4.452 c3.295,0.747,7.388-0.513,10.694-0.955c0.731-0.104,1.484,0,1.822,0.764c0.355,0.765,0.128,1.674-0.546,2.182 c-1.375,1.211-2.821,2.341-4.234,3.508c-4.49,3.732-9.755,6.247-14.857,9.013c-1.064,0.5-2.087,1.082-3.061,1.74 c-0.869,0.665-1.618,1.473-2.215,2.39c-1.479,2.324-0.306,4.518,2.422,4.468c2.024-0.044,4.054-0.136,6.078-0.235 c1.555-0.076,3.443,0.104,4.976-0.327c0.153-0.044,0.306-0.093,0.442-0.126c3.055-1.179,5.783-3.776,8.064-6.04 c2.51-2.482,4.872-4.965,6.635-8.08c2.755-4.883,5.123-9.865,5.2-15.686c0.027-2.21,0.202-4.365-0.344-6.547 C101.303,318.217,98.537,315.724,94.134,316.766z"/></g></svg>