<?xml version="1.0" encoding="UTF-8" standalone="no"?><svg xmlns="http://www.w3.org/2000/svg" xmlns:xlink="http://www.w3.org/1999/xlink" contentScriptType="text/ecmascript" fill="#000000" width="217.7" zoomAndPan="magnify" contentStyleType="text/css" viewBox="-0.1 -0.1 217.7 307.0" height="307" preserveAspectRatio="xMidYMid meet" version="1"><g data-name="Layer 2"><g fill="#fdb813" id="change1_1"><path fill="inherit" d="M217.009,236a32.852,32.852,0,0,0-7.9-1.86c-1.7-.2-3.39-.3-5.09-.33-.08-1.66-.21-3.32-.41-5a48.9,48.9,0,0,0-1.51-7.91.93.93,0,0,0-1.79,0,49.112,49.112,0,0,0-1.51,7.91c-.2,1.69-.33,3.38-.42,5.08-1.69.08-3.38.21-5.08.41a47.911,47.911,0,0,0-7.9,1.52,1,1,0,0,0-.63.63.931.931,0,0,0,.63,1.15,47.807,47.807,0,0,0,7.9,1.52c1.66.19,3.32.32,5,.41a41.277,41.277,0,0,0,.34,5.08,31.792,31.792,0,0,0,1.86,7.9.758.758,0,0,0,.44.44.78.78,0,0,0,1-.44,31.792,31.792,0,0,0,1.86-7.9,48.876,48.876,0,0,0,.33-5,42.115,42.115,0,0,0,5-.33,32.361,32.361,0,0,0,7.9-1.87.8.8,0,0,0,.44-.43A.79.79,0,0,0,217.009,236Z"/><path fill="inherit" d="M32.279,73.338a31.967,31.967,0,0,0-7.91-1.86,50.734,50.734,0,0,0-5.08-.34c-.09-1.66-.22-3.32-.41-5a47.807,47.807,0,0,0-1.52-7.9.911.911,0,0,0-.63-.63.921.921,0,0,0-1.146.616l0,.014a47.911,47.911,0,0,0-1.52,7.9c-.19,1.69-.33,3.39-.41,5.08-1.69.08-3.39.22-5.08.41a47.911,47.911,0,0,0-7.9,1.52,1,1,0,0,0-.63.63.92.92,0,0,0,.616,1.146l.014,0a47.807,47.807,0,0,0,7.9,1.52c1.66.19,3.32.32,5,.41q.043,2.547.34,5.08a32.057,32.057,0,0,0,1.86,7.91.758.758,0,0,0,.43.43.78.78,0,0,0,1-.43,32.836,32.836,0,0,0,1.86-7.91c.2-1.66.29-3.32.33-5a42.254,42.254,0,0,0,5-.33,32.872,32.872,0,0,0,7.91-1.86.79.79,0,0,0,0-1.45Z"/><path fill="inherit" d="M121.789,205.548a31.967,31.967,0,0,0-7.91-1.86,50.734,50.734,0,0,0-5.08-.34c-.09-1.66-.22-3.32-.41-5a47.807,47.807,0,0,0-1.52-7.9.911.911,0,0,0-.63-.63.921.921,0,0,0-1.146.616l0,.014a46.833,46.833,0,0,0-1.51,7.9c-.2,1.69-.34,3.39-.42,5.08-1.69.09-3.39.22-5.08.42a49.013,49.013,0,0,0-7.9,1.51,1,1,0,0,0-.63.63.92.92,0,0,0,.616,1.146l.014,0a47.807,47.807,0,0,0,7.9,1.52c1.66.19,3.32.33,5,.41a41.439,41.439,0,0,0,.34,5.09,31.98,31.98,0,0,0,1.86,7.9.758.758,0,0,0,.43.43.78.78,0,0,0,1-.43,32.9,32.9,0,0,0,1.86-7.9c.2-1.67.29-3.33.33-5a49.162,49.162,0,0,0,5-.33,32.442,32.442,0,0,0,7.91-1.86.79.79,0,0,0,0-1.45Z"/><path fill="inherit" d="M184.419,201.928a9.2,9.2,0,0,0-3.69-1.86,10.435,10.435,0,0,0-1.08-.22c-.06-.29-.12-.59-.2-.88a12.794,12.794,0,0,0-1.51-3.69,1.061,1.061,0,0,0-.34-.33,1,1,0,0,0-1.391.253.906.906,0,0,0-.049.077,12.569,12.569,0,0,0-1.52,3.69c-.09.35-.16.7-.23,1.05-.35.07-.7.14-1,.23a12.569,12.569,0,0,0-3.69,1.52,1.02,1.02,0,0,0-.33.33,1.05,1.05,0,0,0,.328,1.448l0,0a12.794,12.794,0,0,0,3.69,1.51c.29.08.59.14.88.2a10.435,10.435,0,0,0,.22,1.08,9.319,9.319,0,0,0,1.86,3.69l.11.11a1,1,0,0,0,1.34-.11,9.063,9.063,0,0,0,1.86-3.69c.08-.3.15-.6.2-.9a3.642,3.642,0,0,0,.9-.2,9.063,9.063,0,0,0,3.69-1.86,1.142,1.142,0,0,0,.11-.11A1,1,0,0,0,184.419,201.928Z"/><path fill="inherit" d="M148.419,91.478a12.569,12.569,0,0,0-3.69-1.52c-.29-.07-.59-.14-.88-.19a8.416,8.416,0,0,0-.22-1.09,8.994,8.994,0,0,0-1.86-3.68l-.11-.11a1,1,0,0,0-1.34.11,9.3,9.3,0,0,0-1.86,3.68c-.08.3-.14.61-.19.91a9.7,9.7,0,0,0-4.6,2.06l-.1.1a1,1,0,0,0,.1,1.34,9.222,9.222,0,0,0,3.69,1.87,10.45,10.45,0,0,0,1.08.21c.06.3.13.59.2.89a12.631,12.631,0,0,0,1.52,3.68,1,1,0,0,0,1.346.434.99.99,0,0,0,.434-.434,12.819,12.819,0,0,0,1.51-3.68c.09-.36.17-.71.23-1.06.35-.06.7-.14,1-.22a12.569,12.569,0,0,0,3.69-1.52.983.983,0,0,0,.33-.33A1.05,1.05,0,0,0,148.419,91.478Z"/><path fill="inherit" d="M45.149,156.758a10.435,10.435,0,0,0-1.08-.22c-.06-.29-.13-.59-.2-.88a12.542,12.542,0,0,0-1.52-3.69,1,1,0,0,0-.33-.33,1.05,1.05,0,0,0-1.448.327l0,0a12.822,12.822,0,0,0-1.51,3.69c-.09.35-.16.7-.23,1.05-.35.07-.7.14-1,.23a12.794,12.794,0,0,0-3.69,1.51,1.071,1.071,0,0,0-.33.34,1.05,1.05,0,0,0,.328,1.448l0,0a12.794,12.794,0,0,0,3.69,1.51c.29.08.59.14.88.2a8.268,8.268,0,0,0,.22,1.08,9.076,9.076,0,0,0,1.86,3.69l.11.1a.941.941,0,0,0,1.327-.084l.013-.016a9.2,9.2,0,0,0,1.86-3.69c.08-.3.14-.6.2-.9a3.642,3.642,0,0,0,.9-.2,9.063,9.063,0,0,0,3.69-1.86l.1-.11a1,1,0,0,0-.1-1.34A9.078,9.078,0,0,0,45.149,156.758Z"/><path fill="inherit" d="M141.739,296.478a10.621,10.621,0,0,0-1.09-.22,3.961,3.961,0,0,0-.19-.88,12.542,12.542,0,0,0-1.52-3.69,1,1,0,0,0-.33-.33,1.05,1.05,0,0,0-1.448.328l0,0a12.569,12.569,0,0,0-1.52,3.69c-.08.35-.16.7-.22,1.05-.35.07-.7.14-1.06.23a12.859,12.859,0,0,0-3.68,1.51,1.223,1.223,0,0,0-.34.34,1.06,1.06,0,0,0,.34,1.45,12.859,12.859,0,0,0,3.68,1.51c.3.08.59.14.89.2a10.4,10.4,0,0,0,.21,1.08,9.234,9.234,0,0,0,1.88,3.67l.1.1a.94.94,0,0,0,1.3-.1,9.215,9.215,0,0,0,1.87-3.69c.08-.3.14-.6.19-.9.3-.05.6-.12.91-.2a8.994,8.994,0,0,0,3.68-1.86l.11-.11a1,1,0,0,0-.11-1.34A8.994,8.994,0,0,0,141.739,296.478Z"/><path fill="inherit" d="M127.739,149.878a7.109,7.109,0,0,0,.93.49v.06a5.61,5.61,0,0,0,1.87,2.36,1.218,1.218,0,0,0,1.44,0,13.629,13.629,0,0,1,4-4,1.209,1.209,0,0,0,0-1.45,5.649,5.649,0,0,0-2.36-1.86h-.06a6.929,6.929,0,0,0-.49-.93,5.872,5.872,0,0,0-.92-1.18,1.271,1.271,0,0,0-1.78,0,5.945,5.945,0,0,0-.92,1.18,6.175,6.175,0,0,0-.58,1.14,6.923,6.923,0,0,0-1.15.58,6.463,6.463,0,0,0-1.18.93,1.28,1.28,0,0,0,0,1.78A5.92,5.92,0,0,0,127.739,149.878Z"/><path fill="inherit" d="M115.729,55.568a5.884,5.884,0,0,0-.93-.48.409.409,0,0,0,0-.07,5.416,5.416,0,0,0-1.86-2.35,1.2,1.2,0,0,0-1.45,0,5.378,5.378,0,0,0-1.79,2.2,5.429,5.429,0,0,0-2.2,1.79,1.2,1.2,0,0,0,0,1.45,5.537,5.537,0,0,0,2.36,1.86h.06a5.884,5.884,0,0,0,.48.93,6.334,6.334,0,0,0,.92,1.18,1.279,1.279,0,0,0,1.79,0,6.293,6.293,0,0,0,.92-1.18,6.114,6.114,0,0,0,.58-1.14,6.752,6.752,0,0,0,1.14-.58,6.031,6.031,0,0,0,1.18-.93,1.26,1.26,0,0,0,0-1.78A5.639,5.639,0,0,0,115.729,55.568Z"/><path fill="inherit" d="M78.669,2.478h-.06a5.129,5.129,0,0,0-.49-.93A5.652,5.652,0,0,0,77.2.368a1.26,1.26,0,0,0-1.78,0,5.686,5.686,0,0,0-.92,1.18,6.175,6.175,0,0,0-.58,1.14,6.2,6.2,0,0,0-1.15.58,6.684,6.684,0,0,0-1.18.92,1.28,1.28,0,0,0,0,1.78,6.312,6.312,0,0,0,1.18.93,5.927,5.927,0,0,0,.93.48.122.122,0,0,1,0,.06,5.487,5.487,0,0,0,1.87,2.36,1.191,1.191,0,0,0,1.44,0,5.461,5.461,0,0,0,1.8-2.2,5.5,5.5,0,0,0,2.2-1.79,1.209,1.209,0,0,0,0-1.45A5.437,5.437,0,0,0,78.669,2.478Z"/><path fill="inherit" d="M64.539,120.478h-.06a6.929,6.929,0,0,0-.49-.93,6.22,6.22,0,0,0-.92-1.18,1.28,1.28,0,0,0-1.78,0,6.75,6.75,0,0,0-.93,1.18,6.846,6.846,0,0,0-.58,1.15,6.175,6.175,0,0,0-1.14.58,5.974,5.974,0,0,0-1.18.92,1.271,1.271,0,0,0,0,1.78,7.2,7.2,0,0,0,2.11,1.41v.06a5.586,5.586,0,0,0,1.86,2.36,1.209,1.209,0,0,0,1.45,0,5.457,5.457,0,0,0,1.79-2.21,5.365,5.365,0,0,0,2.2-1.79,1.188,1.188,0,0,0,0-1.44A5.522,5.522,0,0,0,64.539,120.478Z"/><path fill="inherit" d="M34.4,241.218h-.06a6.991,6.991,0,0,0-.49-.94,6.22,6.22,0,0,0-.92-1.18,1.28,1.28,0,0,0-1.78,0,6.22,6.22,0,0,0-.92,1.18,6.524,6.524,0,0,0-.58,1.15,7.155,7.155,0,0,0-2.33,1.5,1.28,1.28,0,0,0,0,1.78,6.463,6.463,0,0,0,1.18.93,5.927,5.927,0,0,0,.93.48v.06a5.586,5.586,0,0,0,1.86,2.36,1.209,1.209,0,0,0,1.45,0,13.761,13.761,0,0,1,4-4,1.209,1.209,0,0,0,0-1.45A5.5,5.5,0,0,0,34.4,241.218Z"/></g></g></svg>