<?xml version="1.0" encoding="UTF-8" standalone="no"?><svg xmlns="http://www.w3.org/2000/svg" xmlns:xlink="http://www.w3.org/1999/xlink" contentScriptType="text/ecmascript" fill="#000000" width="94.5" zoomAndPan="magnify" contentStyleType="text/css" viewBox="1.8 36.3 94.5 25.5" height="25.5" preserveAspectRatio="xMidYMid meet" version="1"><g id="change1_1"><path fill="#ffffff" d="M91.902,38.537c-0.361-0.068-0.721-0.122-1.081-0.184c0-0.001,0-0.002,0-0.003 c-0.003,0-0.006,0.001-0.009,0.001c-2.062-0.356-4.118-0.628-6.171-0.821c-0.645-0.772-1.544-1.252-2.701-1.213 c-17.65,0.592-35.3,1.184-52.949,1.776c-6.711,0.032-13.421,0.154-20.125,0.675c-3.566,0.277-4.72,5.216-3.371,8.207 c-0.002,0.039-0.009,0.078-0.01,0.118c-3.06,1.626-3.689,8.497,0.389,9.951c13.29,4.736,28.259,1.86,41.824,0.813 c14.079-1.087,28.201-2.501,41.875-7.206c1.205-0.414,2-1.264,2.453-2.301C95.233,46.439,96.339,39.374,91.902,38.537z"/></g></svg>