<?xml version="1.0" encoding="UTF-8" standalone="no"?><svg xmlns="http://www.w3.org/2000/svg" xmlns:xlink="http://www.w3.org/1999/xlink" contentScriptType="text/ecmascript" fill="#000000" width="368.6" zoomAndPan="magnify" contentStyleType="text/css" viewBox="0.0 0.0 368.6 207.6" height="207.6" preserveAspectRatio="xMidYMid meet" version="1"><defs><clipPath id="a"><path d="M 0 7 L 368.640625 7 L 368.640625 200 L 0 200 Z M 0 7"/></clipPath><clipPath id="b"><path d="M 0 192 L 368.640625 192 L 368.640625 207.640625 L 0 207.640625 Z M 0 192"/></clipPath><clipPath id="c"><path d="M 0 0 L 368.640625 0 L 368.640625 16 L 0 16 Z M 0 0"/></clipPath><clipPath id="d"><path d="M 353 4 L 368.640625 4 L 368.640625 201 L 353 201 Z M 353 4"/></clipPath></defs><g><g id="change1_1" clip-path="url(#a)"><path fill="#edd982" d="M 0 199.960938 L 368.640625 199.960938 L 368.640625 7.675781 L 0 7.675781 L 0 199.960938" fill-rule="evenodd"/></g><g id="change2_1" clip-path="url(#b)"><path fill="#333333" d="M 0 192.28125 L 368.640625 192.28125 L 368.640625 207.640625 L 0 207.640625 L 0 192.28125"/></g><g id="change2_5" clip-path="url(#c)"><path fill="#333333" d="M 0 -0.00390625 L 368.640625 -0.00390625 L 368.640625 15.355469 L 0 15.355469 L 0 -0.00390625"/></g><g id="change2_3"><path fill="#333333" d="M 15.359375 4.792969 L 15.359375 200.261719 L 0 200.261719 L 0 4.792969 L 15.359375 4.792969"/></g><g id="change2_2" clip-path="url(#d)"><path fill="#333333" d="M 368.640625 4.792969 L 368.640625 200.261719 L 353.28125 200.261719 L 353.28125 4.792969 L 368.640625 4.792969"/></g><g id="change2_4"><path fill="#333333" d="M 31.046875 74.191406 C 31.074219 78.832031 31.722656 82.953125 32.972656 86.5625 C 34.246094 90.171875 35.902344 93.425781 37.988281 96.300781 C 40.050781 99.179688 42.332031 101.835938 44.828125 104.25 C 47.296875 106.667969 49.792969 109 52.261719 111.222656 C 54.757812 113.449219 57.035156 115.726562 59.097656 118.058594 C 61.183594 120.367188 62.839844 122.890625 64.117188 125.574219 C 65.363281 128.261719 66.015625 131.246094 66.042969 134.582031 C 66.042969 137.269531 65.660156 139.4375 64.902344 141.066406 C 64.144531 142.695312 63.085938 143.859375 61.703125 144.59375 C 60.316406 145.296875 58.664062 145.679688 56.765625 145.652344 C 54.863281 145.679688 53.210938 145.324219 51.828125 144.59375 C 50.441406 143.859375 49.386719 142.695312 48.625 141.066406 C 47.863281 139.4375 47.484375 137.296875 47.484375 134.582031 L 47.484375 126.445312 L 30.558594 126.445312 L 30.558594 133.441406 C 30.558594 139.546875 31.5625 144.703125 33.570312 148.960938 C 35.574219 153.21875 38.558594 156.476562 42.519531 158.726562 C 46.480469 160.953125 51.390625 162.0625 57.253906 162.089844 C 63.113281 162.0625 68.023438 160.953125 71.984375 158.726562 C 75.945312 156.476562 78.929688 153.21875 80.933594 148.960938 C 82.945312 144.703125 83.949219 139.546875 83.949219 133.441406 C 83.917969 128.804688 83.269531 124.679688 82.019531 121.070312 C 80.746094 117.464844 79.089844 114.207031 77.003906 111.332031 C 74.941406 108.457031 72.660156 105.796875 70.164062 103.382812 C 67.695312 100.96875 65.203125 98.636719 62.730469 96.410156 C 60.234375 94.1875 57.957031 91.90625 55.894531 89.574219 C 53.804688 87.269531 52.152344 84.746094 50.878906 82.058594 C 49.628906 79.375 48.976562 76.363281 48.949219 73.054688 C 48.976562 69.011719 49.738281 66.136719 51.285156 64.371094 C 52.832031 62.636719 55.027344 61.765625 57.902344 61.820312 C 60.777344 61.765625 62.976562 62.636719 64.523438 64.371094 C 66.070312 66.136719 66.828125 69.011719 66.855469 73.054688 L 66.855469 77.773438 L 83.785156 77.773438 L 83.785156 74.191406 C 83.785156 68.089844 82.78125 62.90625 80.828125 58.648438 C 78.847656 54.386719 75.890625 51.160156 71.984375 48.910156 C 68.078125 46.683594 63.21875 45.570312 57.414062 45.542969 C 51.609375 45.570312 46.753906 46.683594 42.847656 48.910156 C 38.941406 51.160156 35.984375 54.386719 34.003906 58.648438 C 32.050781 62.90625 31.046875 68.089844 31.046875 74.191406 Z M 91.566406 63.125 L 110.285156 63.125 L 110.285156 160.789062 L 128.191406 160.789062 L 128.191406 63.125 L 146.910156 63.125 L 146.910156 46.847656 L 91.566406 46.847656 Z M 190.832031 46.847656 L 209.0625 160.789062 L 190.992188 160.789062 L 187.902344 140.117188 L 165.925781 140.117188 L 162.835938 160.789062 L 146.394531 160.789062 L 164.625 46.847656 Z M 176.832031 67.03125 L 168.203125 124.652344 L 185.460938 124.652344 Z M 275.605469 160.789062 C 274.738281 158.699219 274.195312 156.558594 273.953125 154.359375 C 273.734375 152.160156 273.628906 149.691406 273.652344 146.953125 L 273.652344 129.375 C 273.679688 125.414062 273.300781 121.832031 272.570312 118.628906 C 271.808594 115.457031 270.5625 112.714844 268.824219 110.4375 C 267.089844 108.160156 264.726562 106.367188 261.769531 105.121094 C 265.757812 103.246094 268.6875 100.398438 270.617188 96.546875 C 272.539062 92.722656 273.492188 87.863281 273.492188 82.007812 L 273.492188 73.054688 C 273.519531 67.191406 272.597656 62.308594 270.722656 58.429688 C 268.878906 54.550781 266.003906 51.648438 262.097656 49.722656 C 258.164062 47.796875 253.117188 46.847656 246.960938 46.847656 L 219.9375 46.847656 L 219.9375 160.789062 L 237.84375 160.789062 L 237.84375 114.398438 L 244.027344 114.398438 C 246.742188 114.371094 248.964844 114.859375 250.675781 115.808594 C 252.410156 116.757812 253.6875 118.304688 254.527344 120.421875 C 255.339844 122.5625 255.746094 125.386719 255.746094 128.886719 L 255.746094 146.789062 C 255.746094 149.097656 255.804688 150.996094 255.855469 152.488281 C 255.9375 153.980469 256.046875 155.199219 256.210938 156.175781 C 256.34375 157.125 256.507812 157.96875 256.726562 158.671875 C 256.914062 159.378906 257.132812 160.082031 257.378906 160.789062 Z M 246.46875 63.125 C 249.617188 63.097656 251.949219 64.046875 253.414062 65.917969 C 254.878906 67.816406 255.613281 70.800781 255.585938 74.84375 L 255.585938 86.074219 C 255.585938 89.085938 255.152344 91.472656 254.285156 93.238281 C 253.414062 95 252.195312 96.277344 250.59375 97.035156 C 248.992188 97.769531 247.066406 98.148438 244.84375 98.121094 L 237.84375 98.121094 L 237.84375 63.125 Z M 282.738281 63.125 L 301.460938 63.125 L 301.460938 160.789062 L 319.363281 160.789062 L 319.363281 63.125 L 338.082031 63.125 L 338.082031 46.847656 L 282.738281 46.847656 L 282.738281 63.125"/></g></g></svg>